<?xml version="1.0" encoding="UTF-8"?>
<svg version="1.1" xmlns="http://www.w3.org/2000/svg" width="50" height="50">
<path d="M0 0 C2.16395569 0.89489746 2.16395569 0.89489746 4 3 C4.62008815 6.30079135 4.53522049 9.58211319 4.50170898 12.93164062 C4.50981346 14.46125679 4.50981346 14.46125679 4.51808167 16.02177429 C4.53061225 19.40022604 4.51404859 22.77783282 4.49609375 26.15625 C4.49624864 28.49890182 4.49773589 30.84155391 4.50050354 33.1842041 C4.50188948 38.09703887 4.48929654 43.00958239 4.46655273 47.92236328 C4.43816786 54.22777244 4.44090299 60.53269742 4.45364285 66.8381424 C4.46058937 71.67649489 4.45282244 76.51473497 4.44038582 81.35307312 C4.43586134 83.6783556 4.43554317 86.00365011 4.43945122 88.32893372 C4.44235332 91.57566165 4.42590383 94.82171638 4.40405273 98.06835938 C4.40855438 99.03468796 4.41305603 100.00101654 4.41769409 100.99662781 C4.40778946 101.8799025 4.39788483 102.76317719 4.38768005 103.67321777 C4.38525016 104.44086205 4.38282026 105.20850632 4.38031673 105.99941254 C3.88892054 108.58431344 3.11492338 109.4614688 1 111 C-2.04862525 111.29847993 -4.88860095 111.42021845 -7.9375 111.3984375 C-8.81398193 111.40130768 -9.69046387 111.40417786 -10.59350586 111.40713501 C-12.44613288 111.40917598 -14.29878142 111.40364378 -16.15136719 111.39111328 C-18.98942179 111.37505984 -21.82605227 111.39096055 -24.6640625 111.41015625 C-26.46354481 111.40817382 -28.26302624 111.40433016 -30.0625 111.3984375 C-30.91255615 111.40451019 -31.7626123 111.41058289 -32.63842773 111.4168396 C-38.53838991 111.34629788 -38.53838991 111.34629788 -40.71582031 109.71279907 C-42.89424592 106.80728251 -42.58038628 103.31664871 -42.6875 99.8125 C-42.72166016 99.06291016 -42.75582031 98.31332031 -42.79101562 97.54101562 C-42.87334294 95.69453162 -42.93835281 93.84729006 -43 92 C-45.64 92 -48.28 92 -51 92 C-51.03738281 93.12019531 -51.07476562 94.24039063 -51.11328125 95.39453125 C-51.17894257 96.8672209 -51.24538986 98.33987566 -51.3125 99.8125 C-51.33505859 100.55048828 -51.35761719 101.28847656 -51.38085938 102.04882812 C-51.65410899 107.53866129 -51.65410899 107.53866129 -53.28417969 109.71279907 C-56.35375011 112.01557744 -60.24379755 111.42482484 -63.9375 111.3984375 C-64.81398193 111.40130768 -65.69046387 111.40417786 -66.59350586 111.40713501 C-68.44613288 111.40917598 -70.29878142 111.40364378 -72.15136719 111.39111328 C-74.98942179 111.37505984 -77.82605227 111.39096055 -80.6640625 111.41015625 C-82.46354481 111.40817382 -84.26302624 111.40433016 -86.0625 111.3984375 C-86.91255615 111.40451019 -87.7626123 111.41058289 -88.63842773 111.4168396 C-94.51363045 111.34659391 -94.51363045 111.34659391 -96.72155762 109.77319336 C-98.38039663 107.47239173 -98.39190419 106.06517965 -98.41992188 103.24072266 C-98.43583374 102.27607086 -98.45174561 101.31141907 -98.46813965 100.3175354 C-98.46834106 99.27688934 -98.46854248 98.23624329 -98.46875 97.1640625 C-98.47636353 96.09255951 -98.48397705 95.02105652 -98.49182129 93.91708374 C-98.50263236 91.64917329 -98.50547133 89.38121301 -98.50097656 87.11328125 C-98.5000056 83.6449861 -98.54159 80.1789123 -98.5859375 76.7109375 C-98.5911454 74.50781712 -98.59383268 72.30468904 -98.59375 70.1015625 C-98.61014526 69.0649649 -98.62654053 68.02836731 -98.64343262 66.96035767 C-98.57478356 59.79730397 -98.57478356 59.79730397 -95.88549805 56.06689453 C-92.75066107 53.82139747 -89.58668854 51.73462169 -86.23828125 49.828125 C-85.60641403 49.46023865 -84.97454681 49.09235229 -84.3235321 48.71331787 C-82.32400713 47.55153053 -80.3184126 46.40071595 -78.3125 45.25 C-76.95467081 44.46294187 -75.59724479 43.67518775 -74.24023438 42.88671875 C-61.59254524 35.55259638 -61.59254524 35.55259638 -56 36 C-53.84277344 36.99145508 -53.84277344 36.99145508 -52 39 C-51.57429063 41.91428143 -51.39514327 44.46738104 -51.390625 47.38671875 C-51.37408875 48.20372757 -51.35755249 49.02073639 -51.34051514 49.86250305 C-51.2919466 52.47091114 -51.27064541 55.07873594 -51.25 57.6875 C-51.22184759 59.4564097 -51.19192119 61.22529211 -51.16015625 62.99414062 C-51.08618572 67.32937906 -51.03666561 71.66429203 -51 76 C-48.36 76 -45.72 76 -43 76 C-42.99857498 75.34711502 -42.99714996 74.69423004 -42.99568176 74.02156067 C-42.97599027 67.22415188 -42.92172779 60.42764175 -42.84741211 53.63061523 C-42.82421982 51.09422249 -42.80983355 48.55773328 -42.80444336 46.02124023 C-42.79516342 42.37422476 -42.75418947 38.72872936 -42.70703125 35.08203125 C-42.71293022 33.38177544 -42.71293022 33.38177544 -42.71894836 31.64717102 C-42.57381256 23.80987469 -42.57381256 23.80987469 -39.87841797 20.00561523 C-36.73014565 17.81197171 -33.57122551 15.72581744 -30.23828125 13.828125 C-29.60641403 13.46023865 -28.97454681 13.09235229 -28.3235321 12.71331787 C-26.32400713 11.55153053 -24.3184126 10.40071595 -22.3125 9.25 C-20.95467081 8.46294187 -19.59724479 7.67518775 -18.24023438 6.88671875 C-5.59254524 -0.44740362 -5.59254524 -0.44740362 0 0 Z " transform="translate(125,62)"/>
<path d="M0 0 C0.87648193 -0.00287018 1.75296387 -0.00574036 2.65600586 -0.00869751 C4.50863288 -0.01073848 6.36128142 -0.00520628 8.21386719 0.00732422 C11.05192179 0.02337766 13.88855227 0.00747695 16.7265625 -0.01171875 C18.52604481 -0.00973632 20.32552624 -0.00589266 22.125 0 C22.97505615 -0.00607269 23.8251123 -0.01214539 24.70092773 -0.0184021 C30.4634489 0.05049633 30.4634489 0.05049633 32.78604126 1.39950562 C34.84193571 4.6190323 34.47852073 8.06857661 34.45068359 11.76953125 C34.45594055 12.62346466 34.46119751 13.47739807 34.46661377 14.35720825 C34.4798319 17.18363667 34.47106932 20.00950322 34.4609375 22.8359375 C34.46295771 24.79744576 34.46586871 26.7589533 34.46963501 28.72045898 C34.47406082 32.83291774 34.46761901 36.94518112 34.45361328 41.05761719 C34.43652129 46.33395437 34.4463611 51.60983379 34.46433067 56.88615417 C34.47516155 60.93700623 34.47172536 64.98774943 34.4639473 69.03860474 C34.46194336 70.98430434 34.46441131 72.93001377 34.47138596 74.8757019 C34.47898897 77.5931829 34.46741252 80.3099184 34.45068359 83.02734375 C34.45979263 84.23839279 34.45979263 84.23839279 34.46908569 85.47390747 C34.40755478 90.8580824 34.40755478 90.8580824 32.78604126 93.39736938 C29.56031999 95.27093446 25.75706062 94.82282198 22.125 94.796875 C21.24851807 94.79974518 20.37203613 94.80261536 19.46899414 94.80557251 C17.61636712 94.80761348 15.76371858 94.80208128 13.91113281 94.78955078 C11.07307821 94.77349734 8.23644773 94.78939805 5.3984375 94.80859375 C3.59895519 94.80661132 1.79947376 94.80276766 0 94.796875 C-0.85005615 94.80294769 -1.7001123 94.80902039 -2.57592773 94.8152771 C-8.3384489 94.74637867 -8.3384489 94.74637867 -10.66104126 93.39736938 C-12.71693571 90.1778427 -12.35352073 86.72829839 -12.32568359 83.02734375 C-12.33094055 82.17341034 -12.33619751 81.31947693 -12.34161377 80.43966675 C-12.3548319 77.61323833 -12.34606932 74.78737178 -12.3359375 71.9609375 C-12.33795771 69.99942924 -12.34086871 68.0379217 -12.34463501 66.07641602 C-12.34906082 61.96395726 -12.34261901 57.85169388 -12.32861328 53.73925781 C-12.31152129 48.46292063 -12.3213611 43.18704121 -12.33933067 37.91072083 C-12.35016155 33.85986877 -12.34672536 29.80912557 -12.3389473 25.75827026 C-12.33694336 23.81257066 -12.33941131 21.86686123 -12.34638596 19.9211731 C-12.35398897 17.2036921 -12.34241252 14.4869566 -12.32568359 11.76953125 C-12.33175629 10.96216522 -12.33782898 10.15479919 -12.34408569 9.32296753 C-12.28255478 3.9387926 -12.28255478 3.9387926 -10.66104126 1.39950562 C-7.43531999 -0.47405946 -3.63206062 -0.02594698 0 0 Z " transform="translate(150.9375,78.6015625)"/>
<path d="M0 0 C2.03035068 1.50876292 2.87914177 2.39813898 3.38095093 4.89709473 C3.3845311 5.96606995 3.3845311 5.96606995 3.38818359 7.05664062 C3.39764008 7.86758179 3.40709656 8.67852295 3.4168396 9.51403809 C3.41076691 10.38596802 3.40469421 11.25789795 3.3984375 12.15625 C3.40130768 13.05492798 3.40417786 13.95360596 3.40713501 14.8795166 C3.40917615 16.77922191 3.40364278 18.6789482 3.39111328 20.57861328 C3.37506021 23.4890841 3.39096013 26.39816621 3.41015625 29.30859375 C3.40817383 31.1536489 3.40433017 32.99870319 3.3984375 34.84375 C3.40754654 36.1516449 3.40754654 36.1516449 3.4168396 37.48596191 C3.40738312 38.29690308 3.39792664 39.10784424 3.38818359 39.94335938 C3.38579681 40.65600952 3.38341003 41.36865967 3.38095093 42.10290527 C2.87681538 44.61344616 2.04756524 45.49038424 0 47 C-3.04862525 47.29847993 -5.88860095 47.42021845 -8.9375 47.3984375 C-9.81398193 47.40130768 -10.69046387 47.40417786 -11.59350586 47.40713501 C-13.44613288 47.40917598 -15.29878142 47.40364378 -17.15136719 47.39111328 C-19.98942179 47.37505984 -22.82605227 47.39096055 -25.6640625 47.41015625 C-27.46354481 47.40817382 -29.26302624 47.40433016 -31.0625 47.3984375 C-31.91255615 47.40451019 -32.7626123 47.41058289 -33.63842773 47.4168396 C-39.57079225 47.34591047 -39.57079225 47.34591047 -41.72155762 45.61254883 C-44.34211334 42.30714053 -43.51091758 37.66450444 -43.5 33.625 C-43.52835938 32.67882813 -43.55671875 31.73265625 -43.5859375 30.7578125 C-43.58851563 29.84 -43.59109375 28.9221875 -43.59375 27.9765625 C-43.60083984 27.14205566 -43.60792969 26.30754883 -43.61523438 25.44775391 C-42.42948271 20.73015623 -38.70028213 18.46254225 -34.80200195 15.88769531 C-33.61872386 15.19322415 -32.4305814 14.50698993 -31.23828125 13.828125 C-30.60641403 13.46023865 -29.97454681 13.09235229 -29.3235321 12.71331787 C-27.32400713 11.55153053 -25.3184126 10.40071595 -23.3125 9.25 C-21.95467081 8.46294187 -20.59724479 7.67518775 -19.24023438 6.88671875 C-6.56911467 -0.4609905 -6.56911467 -0.4609905 0 0 Z " transform="translate(182,30)"/>
<path d="M0 0 C2.16395569 0.89489746 2.16395569 0.89489746 4 3 C4.62008815 6.30079135 4.53522049 9.58211319 4.50170898 12.93164062 C4.50981346 14.46125679 4.50981346 14.46125679 4.51808167 16.02177429 C4.53061225 19.40022604 4.51404859 22.77783282 4.49609375 26.15625 C4.49624864 28.49890182 4.49773589 30.84155391 4.50050354 33.1842041 C4.50188948 38.09703887 4.48929654 43.00958239 4.46655273 47.92236328 C4.43816786 54.22777244 4.44090299 60.53269742 4.45364285 66.8381424 C4.46058937 71.67649489 4.45282244 76.51473497 4.44038582 81.35307312 C4.43586134 83.6783556 4.43554317 86.00365011 4.43945122 88.32893372 C4.44235332 91.57566165 4.42590383 94.82171638 4.40405273 98.06835938 C4.40855438 99.03468796 4.41305603 100.00101654 4.41769409 100.99662781 C4.40778946 101.8799025 4.39788483 102.76317719 4.38768005 103.67321777 C4.38525016 104.44086205 4.38282026 105.20850632 4.38031673 105.99941254 C3.88892054 108.58431344 3.11492338 109.4614688 1 111 C-2.04862525 111.29847993 -4.88860095 111.42021845 -7.9375 111.3984375 C-8.81398193 111.40130768 -9.69046387 111.40417786 -10.59350586 111.40713501 C-12.44613288 111.40917598 -14.29878142 111.40364378 -16.15136719 111.39111328 C-18.98942179 111.37505984 -21.82605227 111.39096055 -24.6640625 111.41015625 C-26.46354481 111.40817382 -28.26302624 111.40433016 -30.0625 111.3984375 C-30.91255615 111.40451019 -31.7626123 111.41058289 -32.63842773 111.4168396 C-38.53838991 111.34629788 -38.53838991 111.34629788 -40.71582031 109.71279907 C-42.89424592 106.80728251 -42.58038628 103.31664871 -42.6875 99.8125 C-42.72166016 99.06291016 -42.75582031 98.31332031 -42.79101562 97.54101562 C-42.87334294 95.69453162 -42.93835281 93.84729006 -43 92 C-45.64 92 -48.28 92 -51 92 C-51.03738281 93.12019531 -51.07476562 94.24039063 -51.11328125 95.39453125 C-51.17894257 96.8672209 -51.24538986 98.33987566 -51.3125 99.8125 C-51.33505859 100.55048828 -51.35761719 101.28847656 -51.38085938 102.04882812 C-51.65410899 107.53866129 -51.65410899 107.53866129 -53.28417969 109.71279907 C-56.35375011 112.01557744 -60.24379755 111.42482484 -63.9375 111.3984375 C-64.81398193 111.40130768 -65.69046387 111.40417786 -66.59350586 111.40713501 C-68.44613288 111.40917598 -70.29878142 111.40364378 -72.15136719 111.39111328 C-74.98942179 111.37505984 -77.82605227 111.39096055 -80.6640625 111.41015625 C-82.46354481 111.40817382 -84.26302624 111.40433016 -86.0625 111.3984375 C-86.91255615 111.40451019 -87.7626123 111.41058289 -88.63842773 111.4168396 C-94.51363045 111.34659391 -94.51363045 111.34659391 -96.72155762 109.77319336 C-98.38039663 107.47239173 -98.39190419 106.06517965 -98.41992188 103.24072266 C-98.43583374 102.27607086 -98.45174561 101.31141907 -98.46813965 100.3175354 C-98.46834106 99.27688934 -98.46854248 98.23624329 -98.46875 97.1640625 C-98.47636353 96.09255951 -98.48397705 95.02105652 -98.49182129 93.91708374 C-98.50263236 91.64917329 -98.50547133 89.38121301 -98.50097656 87.11328125 C-98.5000056 83.6449861 -98.54159 80.1789123 -98.5859375 76.7109375 C-98.5911454 74.50781712 -98.59383268 72.30468904 -98.59375 70.1015625 C-98.61014526 69.0649649 -98.62654053 68.02836731 -98.64343262 66.96035767 C-98.57478356 59.79730397 -98.57478356 59.79730397 -95.88549805 56.06689453 C-92.75066107 53.82139747 -89.58668854 51.73462169 -86.23828125 49.828125 C-85.60641403 49.46023865 -84.97454681 49.09235229 -84.3235321 48.71331787 C-82.32400713 47.55153053 -80.3184126 46.40071595 -78.3125 45.25 C-76.95467081 44.46294187 -75.59724479 43.67518775 -74.24023438 42.88671875 C-61.59254524 35.55259638 -61.59254524 35.55259638 -56 36 C-53.84277344 36.99145508 -53.84277344 36.99145508 -52 39 C-51.57429063 41.91428143 -51.39514327 44.46738104 -51.390625 47.38671875 C-51.37408875 48.20372757 -51.35755249 49.02073639 -51.34051514 49.86250305 C-51.2919466 52.47091114 -51.27064541 55.07873594 -51.25 57.6875 C-51.22184759 59.4564097 -51.19192119 61.22529211 -51.16015625 62.99414062 C-51.08618572 67.32937906 -51.03666561 71.66429203 -51 76 C-48.36 76 -45.72 76 -43 76 C-42.99857498 75.34711502 -42.99714996 74.69423004 -42.99568176 74.02156067 C-42.97599027 67.22415188 -42.92172779 60.42764175 -42.84741211 53.63061523 C-42.82421982 51.09422249 -42.80983355 48.55773328 -42.80444336 46.02124023 C-42.79516342 42.37422476 -42.75418947 38.72872936 -42.70703125 35.08203125 C-42.71293022 33.38177544 -42.71293022 33.38177544 -42.71894836 31.64717102 C-42.57381256 23.80987469 -42.57381256 23.80987469 -39.87841797 20.00561523 C-36.73014565 17.81197171 -33.57122551 15.72581744 -30.23828125 13.828125 C-29.60641403 13.46023865 -28.97454681 13.09235229 -28.3235321 12.71331787 C-26.32400713 11.55153053 -24.3184126 10.40071595 -22.3125 9.25 C-20.95467081 8.46294187 -19.59724479 7.67518775 -18.24023438 6.88671875 C-5.59254524 -0.44740362 -5.59254524 -0.44740362 0 0 Z M-12.3203125 7.0859375 C-13.37011795 7.71140976 -13.37011795 7.71140976 -14.44113159 8.34951782 C-15.91780129 9.23151533 -17.39196521 10.11771979 -18.86376953 11.0078125 C-21.11865121 12.37116139 -23.38075955 13.72178719 -25.64453125 15.0703125 C-27.07856424 15.92895434 -28.51217279 16.78830553 -29.9453125 17.6484375 C-30.62240265 18.05371674 -31.2994928 18.45899597 -31.99710083 18.8765564 C-34.57082244 20.43588833 -36.86363257 21.86363257 -39 24 C-39.32439596 26.37791946 -39.32439596 26.37791946 -39.30297852 29.16821289 C-39.31962051 30.24595474 -39.33626251 31.32369659 -39.35340881 32.43409729 C-39.36182297 33.60182175 -39.37023712 34.7695462 -39.37890625 35.97265625 C-39.39590073 37.16604111 -39.4128952 38.35942596 -39.43040466 39.588974 C-39.48369208 43.41342847 -39.52390613 47.23787116 -39.5625 51.0625 C-39.60634742 54.89064357 -39.6529882 58.71870029 -39.70530701 62.54673767 C-39.7373975 64.93270894 -39.76424516 67.31875718 -39.78553772 69.70484924 C-39.79902756 70.77943893 -39.8125174 71.85402863 -39.82641602 72.96118164 C-39.84068382 74.38775841 -39.84068382 74.38775841 -39.85523987 75.84315491 C-40 78 -40 78 -41 79 C-42.99799572 79.09873816 -44.99957158 79.12971799 -47 79.125 C-48.093125 79.12757813 -49.18625 79.13015625 -50.3125 79.1328125 C-53 79 -53 79 -54 78 C-54.13542809 75.28629531 -54.21056807 72.59443564 -54.24609375 69.87890625 C-54.27902796 68.20507281 -54.31223968 66.53124482 -54.34570312 64.85742188 C-54.39318011 62.20633651 -54.43760684 59.55527391 -54.47680664 56.90405273 C-54.51642134 54.35376766 -54.56798868 51.80394098 -54.62109375 49.25390625 C-54.6295079 48.45803604 -54.63792206 47.66216583 -54.64659119 46.84217834 C-54.57850222 42.45320517 -54.57850222 42.45320517 -57 39 C-61.99906008 39.26348707 -65.36128968 41.11698364 -69.5703125 43.7109375 C-70.17382538 44.0797403 -70.77733826 44.44854309 -71.3991394 44.82852173 C-73.31344641 46.00171274 -75.21904488 47.18830054 -77.125 48.375 C-78.41224293 49.16490643 -79.69999902 49.95397725 -80.98828125 50.7421875 C-84.34191575 52.80325896 -87.68977434 54.86951471 -91 57 C-91.71039429 57.4404213 -92.42078857 57.88084259 -93.15270996 58.33460999 C-95.17101648 59.83664738 -95.17101648 59.83664738 -95.49447632 62.09364319 C-95.49020126 63.30037941 -95.49020126 63.30037941 -95.48583984 64.53149414 C-95.4919931 65.44576675 -95.49814636 66.36003937 -95.50448608 67.30201721 C-95.49011505 68.28645309 -95.47574402 69.27088898 -95.4609375 70.28515625 C-95.46002106 71.29718613 -95.45910461 72.309216 -95.4581604 73.35191345 C-95.45211769 75.49124848 -95.43635174 77.63057478 -95.41162109 79.76977539 C-95.3751033 83.05321237 -95.37060171 86.33552178 -95.37109375 89.61914062 C-95.36126337 91.6953223 -95.34960672 93.7714963 -95.3359375 95.84765625 C-95.33371185 96.83411636 -95.33148621 97.82057648 -95.32919312 98.83692932 C-95.31643341 99.74804977 -95.30367371 100.65917023 -95.29052734 101.59790039 C-95.28290375 102.40159561 -95.27528015 103.20529083 -95.26742554 104.03334045 C-95.17038918 106.23319977 -95.17038918 106.23319977 -93 108 C-90.29864677 108.19973733 -87.70202789 108.27981573 -85 108.265625 C-83.81277344 108.26849518 -83.81277344 108.26849518 -82.6015625 108.27142334 C-80.9270801 108.27278518 -79.25258715 108.26908882 -77.578125 108.26074219 C-75.01017619 108.2500424 -72.44292697 108.26063725 -69.875 108.2734375 C-68.24999845 108.2721159 -66.62499734 108.26955351 -65 108.265625 C-63.84371094 108.27169769 -63.84371094 108.27169769 -62.6640625 108.27789307 C-58.36870563 108.39644711 -58.36870563 108.39644711 -55 106 C-54.71929297 103.28842799 -54.53432234 100.65561004 -54.4375 97.9375 C-54.11993243 90.11993243 -54.11993243 90.11993243 -53 89 C-51.00200428 88.90126184 -49.00042842 88.87028201 -47 88.875 C-45.906875 88.87242187 -44.81375 88.86984375 -43.6875 88.8671875 C-41 89 -41 89 -40 90 C-39.76309039 93.39570436 -39.6035831 96.78416702 -39.48242188 100.18554688 C-39.42901398 104.55780501 -39.42901398 104.55780501 -37 108 C-34.29864677 108.19973733 -31.70202789 108.27981573 -29 108.265625 C-27.81277344 108.26849518 -27.81277344 108.26849518 -26.6015625 108.27142334 C-24.9270801 108.27278518 -23.25258715 108.26908882 -21.578125 108.26074219 C-19.01017619 108.2500424 -16.44292697 108.26063725 -13.875 108.2734375 C-12.24999845 108.2721159 -10.62499734 108.26955351 -9 108.265625 C-7.84371094 108.27169769 -7.84371094 108.27169769 -6.6640625 108.27789307 C-2.36870563 108.39644711 -2.36870563 108.39644711 1 106 C1.30265109 104.11761345 1.30265109 104.11761345 1.25396729 101.93859863 C1.25960693 101.08891006 1.26524658 100.2392215 1.27105713 99.36378479 C1.26700867 98.42969284 1.26296021 97.49560089 1.25878906 96.53320312 C1.2622937 95.55101303 1.26579834 94.56882294 1.26940918 93.55686951 C1.27823825 90.29825855 1.27237316 87.0398633 1.265625 83.78125 C1.26697131 81.52445433 1.26891156 79.26765894 1.27142334 77.01086426 C1.2743762 72.27625778 1.27007173 67.54172665 1.26074219 62.80712891 C1.24934761 56.72700249 1.25590621 50.64705262 1.26788712 44.56693268 C1.27510133 39.90536154 1.2728198 35.24383251 1.26763153 30.58226013 C1.26629382 28.33987914 1.26794697 26.09749438 1.27259064 23.8551178 C1.27764864 20.7255739 1.26995579 17.59631914 1.25878906 14.46679688 C1.26283752 13.53270493 1.26688599 12.59861298 1.27105713 11.63621521 C1.26541748 10.78652664 1.25977783 9.93683807 1.25396729 9.06140137 C1.25321323 8.32103386 1.25245918 7.58066635 1.25168228 6.81786346 C1.15163174 4.74933035 1.15163174 4.74933035 -1 3 C-5.77614427 3 -8.37876709 4.68878479 -12.3203125 7.0859375 Z " transform="translate(125,62)"/>
<path d="M0 0 C0.87648193 -0.00287018 1.75296387 -0.00574036 2.65600586 -0.00869751 C4.50863288 -0.01073848 6.36128142 -0.00520628 8.21386719 0.00732422 C11.05192179 0.02337766 13.88855227 0.00747695 16.7265625 -0.01171875 C18.52604481 -0.00973632 20.32552624 -0.00589266 22.125 0 C22.97505615 -0.00607269 23.8251123 -0.01214539 24.70092773 -0.0184021 C30.4634489 0.05049633 30.4634489 0.05049633 32.78604126 1.39950562 C34.84193571 4.6190323 34.47852073 8.06857661 34.45068359 11.76953125 C34.45594055 12.62346466 34.46119751 13.47739807 34.46661377 14.35720825 C34.4798319 17.18363667 34.47106932 20.00950322 34.4609375 22.8359375 C34.46295771 24.79744576 34.46586871 26.7589533 34.46963501 28.72045898 C34.47406082 32.83291774 34.46761901 36.94518112 34.45361328 41.05761719 C34.43652129 46.33395437 34.4463611 51.60983379 34.46433067 56.88615417 C34.47516155 60.93700623 34.47172536 64.98774943 34.4639473 69.03860474 C34.46194336 70.98430434 34.46441131 72.93001377 34.47138596 74.8757019 C34.47898897 77.5931829 34.46741252 80.3099184 34.45068359 83.02734375 C34.45979263 84.23839279 34.45979263 84.23839279 34.46908569 85.47390747 C34.40755478 90.8580824 34.40755478 90.8580824 32.78604126 93.39736938 C29.56031999 95.27093446 25.75706062 94.82282198 22.125 94.796875 C21.24851807 94.79974518 20.37203613 94.80261536 19.46899414 94.80557251 C17.61636712 94.80761348 15.76371858 94.80208128 13.91113281 94.78955078 C11.07307821 94.77349734 8.23644773 94.78939805 5.3984375 94.80859375 C3.59895519 94.80661132 1.79947376 94.80276766 0 94.796875 C-0.85005615 94.80294769 -1.7001123 94.80902039 -2.57592773 94.8152771 C-8.3384489 94.74637867 -8.3384489 94.74637867 -10.66104126 93.39736938 C-12.71693571 90.1778427 -12.35352073 86.72829839 -12.32568359 83.02734375 C-12.33094055 82.17341034 -12.33619751 81.31947693 -12.34161377 80.43966675 C-12.3548319 77.61323833 -12.34606932 74.78737178 -12.3359375 71.9609375 C-12.33795771 69.99942924 -12.34086871 68.0379217 -12.34463501 66.07641602 C-12.34906082 61.96395726 -12.34261901 57.85169388 -12.32861328 53.73925781 C-12.31152129 48.46292063 -12.3213611 43.18704121 -12.33933067 37.91072083 C-12.35016155 33.85986877 -12.34672536 29.80912557 -12.3389473 25.75827026 C-12.33694336 23.81257066 -12.33941131 21.86686123 -12.34638596 19.9211731 C-12.35398897 17.2036921 -12.34241252 14.4869566 -12.32568359 11.76953125 C-12.33175629 10.96216522 -12.33782898 10.15479919 -12.34408569 9.32296753 C-12.28255478 3.9387926 -12.28255478 3.9387926 -10.66104126 1.39950562 C-7.43531999 -0.47405946 -3.63206062 -0.02594698 0 0 Z M-8.9375 5.3984375 C-9.13597608 8.06806236 -9.21023819 10.63395042 -9.19628906 13.3046875 C-9.1997937 14.12106689 -9.20329834 14.93744629 -9.20690918 15.77856445 C-9.21573348 18.48527453 -9.20987493 21.19172462 -9.203125 23.8984375 C-9.20447145 25.77408905 -9.20641181 27.64974027 -9.20892334 29.52539062 C-9.21187555 33.45966916 -9.20757386 37.39385699 -9.19824219 41.328125 C-9.1868476 46.37918314 -9.19340656 51.43002876 -9.20538712 56.4810791 C-9.21260311 60.35515961 -9.21031899 64.22918947 -9.20513153 68.10327148 C-9.20379431 69.96606471 -9.20544527 71.82886248 -9.21009064 73.69165039 C-9.21515161 76.29195392 -9.20745181 78.89190995 -9.19628906 81.4921875 C-9.20033752 82.26731689 -9.20438599 83.04244629 -9.20855713 83.84106445 C-9.32331171 88.08004311 -9.32331171 88.08004311 -6.9375 91.3984375 C-4.23614677 91.59817483 -1.63952789 91.67825323 1.0625 91.6640625 C2.24972656 91.66693268 2.24972656 91.66693268 3.4609375 91.66986084 C5.1354199 91.67122268 6.80991285 91.66752632 8.484375 91.65917969 C11.05232381 91.6484799 13.61957303 91.65907475 16.1875 91.671875 C17.81250155 91.6705534 19.43750266 91.66799101 21.0625 91.6640625 C22.21878906 91.67013519 22.21878906 91.67013519 23.3984375 91.67633057 C27.69379437 91.79488461 27.69379437 91.79488461 31.0625 89.3984375 C31.26097608 86.72881264 31.33523819 84.16292458 31.32128906 81.4921875 C31.3247937 80.67580811 31.32829834 79.85942871 31.33190918 79.01831055 C31.34073348 76.31160047 31.33487493 73.60515038 31.328125 70.8984375 C31.32947145 69.02278595 31.33141181 67.14713473 31.33392334 65.27148438 C31.33687555 61.33720584 31.33257386 57.40301801 31.32324219 53.46875 C31.3118476 48.41769186 31.31840656 43.36684624 31.33038712 38.3157959 C31.33760311 34.44171539 31.33531899 30.56768553 31.33013153 26.69360352 C31.32879431 24.83081029 31.33044527 22.96801252 31.33509064 21.10522461 C31.34015161 18.50492108 31.33245181 15.90496505 31.32128906 13.3046875 C31.32533752 12.52955811 31.32938599 11.75442871 31.33355713 10.95581055 C31.44831171 6.71683189 31.44831171 6.71683189 29.0625 3.3984375 C26.36114677 3.19870017 23.76452789 3.11862177 21.0625 3.1328125 C19.87527344 3.12994232 19.87527344 3.12994232 18.6640625 3.12701416 C16.9895801 3.12565232 15.31508715 3.12934868 13.640625 3.13769531 C11.07267619 3.1483951 8.50542697 3.13780025 5.9375 3.125 C4.31249845 3.1263216 2.68749734 3.12888399 1.0625 3.1328125 C-0.09378906 3.12673981 -0.09378906 3.12673981 -1.2734375 3.12054443 C-5.56879437 3.00199039 -5.56879437 3.00199039 -8.9375 5.3984375 Z " transform="translate(150.9375,78.6015625)"/>
<path d="M0 0 C2.03035068 1.50876292 2.87914177 2.39813898 3.38095093 4.89709473 C3.3845311 5.96606995 3.3845311 5.96606995 3.38818359 7.05664062 C3.39764008 7.86758179 3.40709656 8.67852295 3.4168396 9.51403809 C3.41076691 10.38596802 3.40469421 11.25789795 3.3984375 12.15625 C3.40130768 13.05492798 3.40417786 13.95360596 3.40713501 14.8795166 C3.40917615 16.77922191 3.40364278 18.6789482 3.39111328 20.57861328 C3.37506021 23.4890841 3.39096013 26.39816621 3.41015625 29.30859375 C3.40817383 31.1536489 3.40433017 32.99870319 3.3984375 34.84375 C3.40754654 36.1516449 3.40754654 36.1516449 3.4168396 37.48596191 C3.40738312 38.29690308 3.39792664 39.10784424 3.38818359 39.94335938 C3.38579681 40.65600952 3.38341003 41.36865967 3.38095093 42.10290527 C2.87681538 44.61344616 2.04756524 45.49038424 0 47 C-3.04862525 47.29847993 -5.88860095 47.42021845 -8.9375 47.3984375 C-9.81398193 47.40130768 -10.69046387 47.40417786 -11.59350586 47.40713501 C-13.44613288 47.40917598 -15.29878142 47.40364378 -17.15136719 47.39111328 C-19.98942179 47.37505984 -22.82605227 47.39096055 -25.6640625 47.41015625 C-27.46354481 47.40817382 -29.26302624 47.40433016 -31.0625 47.3984375 C-31.91255615 47.40451019 -32.7626123 47.41058289 -33.63842773 47.4168396 C-39.57079225 47.34591047 -39.57079225 47.34591047 -41.72155762 45.61254883 C-44.34211334 42.30714053 -43.51091758 37.66450444 -43.5 33.625 C-43.52835938 32.67882813 -43.55671875 31.73265625 -43.5859375 30.7578125 C-43.58851563 29.84 -43.59109375 28.9221875 -43.59375 27.9765625 C-43.60083984 27.14205566 -43.60792969 26.30754883 -43.61523438 25.44775391 C-42.42948271 20.73015623 -38.70028213 18.46254225 -34.80200195 15.88769531 C-33.61872386 15.19322415 -32.4305814 14.50698993 -31.23828125 13.828125 C-30.60641403 13.46023865 -29.97454681 13.09235229 -29.3235321 12.71331787 C-27.32400713 11.55153053 -25.3184126 10.40071595 -23.3125 9.25 C-21.95467081 8.46294187 -20.59724479 7.67518775 -19.24023438 6.88671875 C-6.56911467 -0.4609905 -6.56911467 -0.4609905 0 0 Z M-13.3203125 7.0859375 C-14.0201828 7.50291901 -14.7200531 7.91990051 -15.44113159 8.34951782 C-16.91780129 9.23151533 -18.39196521 10.11771979 -19.86376953 11.0078125 C-22.11865121 12.37116139 -24.38075955 13.72178719 -26.64453125 15.0703125 C-28.07856424 15.92895434 -29.51217279 16.78830553 -30.9453125 17.6484375 C-31.62240265 18.05371674 -32.2994928 18.45899597 -32.99710083 18.8765564 C-35.57082244 20.43588833 -37.86363257 21.86363257 -40 24 C-40.30903289 25.90228305 -40.30903289 25.90228305 -40.265625 28.0625 C-40.26820313 28.85914062 -40.27078125 29.65578125 -40.2734375 30.4765625 C-40.26570312 31.30929688 -40.25796875 32.14203125 -40.25 33 C-40.25773438 33.83273438 -40.26546875 34.66546875 -40.2734375 35.5234375 C-40.27085937 36.32007813 -40.26828125 37.11671875 -40.265625 37.9375 C-40.26336914 38.66839844 -40.26111328 39.39929688 -40.25878906 40.15234375 C-40.15448561 42.24697364 -40.15448561 42.24697364 -38 44 C-35.29864677 44.19973733 -32.70202789 44.27981573 -30 44.265625 C-28.81277344 44.26849518 -28.81277344 44.26849518 -27.6015625 44.27142334 C-25.9270801 44.27278518 -24.25258715 44.26908882 -22.578125 44.26074219 C-20.01017619 44.2500424 -17.44292697 44.26063725 -14.875 44.2734375 C-13.24999845 44.2721159 -11.62499734 44.26955351 -10 44.265625 C-8.84371094 44.27169769 -8.84371094 44.27169769 -7.6640625 44.27789307 C-3.36870563 44.39644711 -3.36870563 44.39644711 0 42 C0.19982025 39.22664573 0.279792 36.55530357 0.265625 33.78125 C0.26753845 32.96756958 0.2694519 32.15388916 0.27142334 31.31555176 C0.27278527 29.593991 0.26908828 27.87241997 0.26074219 26.15087891 C0.25004258 23.5105083 0.260637 20.87081811 0.2734375 18.23046875 C0.27211591 16.55989433 0.26955352 14.88932033 0.265625 13.21875 C0.26967346 12.42601685 0.27372192 11.63328369 0.27789307 10.81652832 C0.41104123 6.44072573 0.41104123 6.44072573 -2 3 C-6.77614427 3 -9.37876709 4.68878479 -13.3203125 7.0859375 Z " transform="translate(182,30)"/>
</svg>
