<?xml version="1.0" standalone="no"?>
<!DOCTYPE svg PUBLIC "-//W3C//DTD SVG 20010904//EN"
 "http://www.w3.org/TR/2001/REC-SVG-20010904/DTD/svg10.dtd">
<svg version="1.0" xmlns="http://www.w3.org/2000/svg"
 width="216.000000pt" height="216.000000pt" viewBox="0 0 216.000000 216.000000"
 preserveAspectRatio="xMidYMid meet">

<g transform="translate(0.000000,216.000000) scale(0.100000,-0.100000)"
fill="#fff" stroke="none">
<path d="M1615 1734 c-88 -53 -168 -103 -177 -111 -25 -22 -26 -164 -2 -187
23 -24 345 -24 368 0 13 13 16 45 16 189 0 144 -3 176 -16 189 -8 9 -18 16
-22 16 -4 0 -79 -43 -167 -96z"/>
<path d="M1055 1414 c-88 -53 -168 -103 -177 -111 -16 -15 -18 -41 -18 -278 0
-190 -3 -264 -12 -273 -16 -16 -120 -16 -136 0 -8 8 -12 65 -12 189 0 151 -2
180 -16 194 -9 9 -23 14 -32 10 -23 -9 -283 -165 -319 -192 l-33 -24 0 -219
c0 -185 2 -221 16 -234 13 -13 44 -16 184 -16 203 0 200 -2 200 104 0 43 5 77
12 84 16 16 120 16 136 0 7 -7 12 -41 12 -84 0 -106 -3 -104 200 -104 140 0
171 3 184 16 14 14 16 74 16 509 0 435 -2 495 -16 509 -8 9 -18 16 -22 16 -4
0 -79 -43 -167 -96z"/>
<path d="M1436 1324 c-14 -13 -16 -66 -16 -424 0 -358 2 -411 16 -424 23 -24
345 -24 368 0 14 13 16 66 16 424 0 358 -2 411 -16 424 -13 13 -44 16 -184 16
-140 0 -171 -3 -184 -16z"/>
</g>
</svg>
