<?xml version="1.0" encoding="UTF-8"?>
<!-- Generator: visioncortex VTracer 0.6.4 -->
<svg version="1.1" xmlns="http://www.w3.org/2000/svg" width="101" height="101">
<path d="M0 0 C33.33 0 66.66 0 101 0 C101 33.33 101 66.66 101 101 C67.67 101 34.34 101 0 101 C0 67.67 0 34.34 0 0 Z " fill="#010101" transform="translate(0,0)"/>
<path d="M0 0 C0.33 0 0.66 0 1 0 C1 2.97 1 5.94 1 9 C0.34 9 -0.32 9 -1 9 C-1.091 10.377 -1.091 10.377 -1.184 11.781 C-1.357 14.318 -1.546 16.853 -1.75 19.387 C-2.043 22.795 -2.043 22.795 -1.938 25.395 C-1.938 28.823 -2.781 30.756 -5.043 33.27 C-7.621 35.622 -10.273 37.823 -13 40 C-14.379 41.183 -15.755 42.369 -17.125 43.562 C-18.074 44.367 -19.023 45.171 -20 46 C-19.036 33.33 -19.036 33.33 -18 28 C-20.97 28 -23.94 28 -27 28 C-27 27.34 -27 26.68 -27 26 C-26.34 26 -25.68 26 -25 26 C-24.938 25.381 -24.876 24.763 -24.812 24.125 C-24.544 23.424 -24.276 22.722 -24 22 C-22.339 21.319 -20.672 20.653 -19 20 C-17.656 17.983 -17.656 17.983 -17 16 C-16.34 16 -15.68 16 -15 16 C-14.34 14.68 -13.68 13.36 -13 12 C-12.34 12 -11.68 12 -11 12 C-11 11.34 -11 10.68 -11 10 C-10.34 10 -9.68 10 -9 10 C-9 9.34 -9 8.68 -9 8 C-8.34 8 -7.68 8 -7 8 C-7 7.01 -7 6.02 -7 5 C-4.625 3.438 -4.625 3.438 -2 2 C-1.34 1.34 -0.68 0.68 0 0 Z " fill="#181818" transform="translate(75,28)"/>
<path d="M0 0 C4.95 0 9.9 0 15 0 C14.125 7.875 14.125 7.875 13 9 C13.99 9 14.98 9 16 9 C15.812 11.375 15.812 11.375 15 14 C13.34 14.683 11.672 15.346 10 16 C7.52 18.197 5.252 20.572 3 23 C2.34 22.34 1.68 21.68 1 21 C0.34 21.66 -0.32 22.32 -1 23 C-1.99 23 -2.98 23 -4 23 C-3.34 18.71 -2.68 14.42 -2 10 C-1.34 10 -0.68 10 0 10 C0 6.7 0 3.4 0 0 Z M-1 23 C-0.01 23.33 0.98 23.66 2 24 C1.01 25.485 1.01 25.485 0 27 C-0.604 29.381 -1.139 31.78 -1.625 34.188 C-1.885 35.46 -2.146 36.732 -2.414 38.043 C-2.607 39.019 -2.801 39.995 -3 41 C-3.33 41 -3.66 41 -4 41 C-4.428 34.585 -2.857 29.114 -1 23 Z " fill="#171717" transform="translate(31,18)"/>
<path d="M0 0 C1.395 0.007 2.789 0.019 4.184 0.035 C4.895 0.04 5.605 0.044 6.338 0.049 C8.099 0.061 9.86 0.079 11.621 0.098 C11.291 2.738 10.961 5.378 10.621 8.098 C9.961 8.098 9.301 8.098 8.621 8.098 C8.621 8.758 8.621 9.418 8.621 10.098 C7.961 10.098 7.301 10.098 6.621 10.098 C6.385 10.673 6.149 11.248 5.906 11.84 C4.339 14.593 2.474 16.183 0.059 18.223 C-3.126 20.792 -3.126 20.792 -5.379 24.098 C-6.039 24.098 -6.699 24.098 -7.379 24.098 C-6.907 20.284 -6.425 16.472 -5.941 12.66 C-5.807 11.572 -5.672 10.483 -5.533 9.361 C-5.401 8.327 -5.269 7.292 -5.133 6.227 C-5.012 5.268 -4.892 4.31 -4.768 3.323 C-4.14 -0.267 -3.832 0.111 0 0 Z " fill="#171717" transform="translate(64.37890625,17.90234375)"/>
<path d="M0 0 C0.293 7.791 -0.534 14.603 -3 22 C-7.62 22 -12.24 22 -17 22 C-16.125 15.25 -16.125 15.25 -15 13 C-14.34 13 -13.68 13 -13 13 C-13 12.34 -13 11.68 -13 11 C-12.34 11 -11.68 11 -11 11 C-11 10.34 -11 9.68 -11 9 C-10.34 9 -9.68 9 -9 9 C-9 8.34 -9 7.68 -9 7 C-7.285 5.273 -7.285 5.273 -5.062 3.375 C-4.332 2.743 -3.601 2.112 -2.848 1.461 C-1 0 -1 0 0 0 Z " fill="#181818" transform="translate(73,61)"/>
<path d="M0 0 C1.056 3.169 0.954 4.448 0.441 7.668 C0.303 8.561 0.164 9.453 0.021 10.373 C-0.13 11.302 -0.281 12.231 -0.438 13.188 C-0.585 14.128 -0.733 15.068 -0.885 16.037 C-1.25 18.359 -1.622 20.68 -2 23 C-4.125 23.027 -6.25 23.046 -8.375 23.062 C-9.558 23.074 -10.742 23.086 -11.961 23.098 C-15 23 -15 23 -17 22 C-17.324 18.877 -17.328 17.447 -15.439 14.872 C-14.371 13.843 -14.371 13.843 -13.281 12.793 C-12.514 12.042 -11.747 11.291 -10.957 10.518 C-9.741 9.364 -9.741 9.364 -8.5 8.188 C-7.689 7.399 -6.878 6.611 -6.043 5.799 C-4.039 3.854 -2.025 1.922 0 0 Z " fill="#181818" transform="translate(43,60)"/>
<path d="M0 0 C-0.188 2.375 -0.188 2.375 -1 5 C-2.66 5.683 -4.328 6.346 -6 7 C-8.48 9.197 -10.748 11.572 -13 14 C-13.33 12.68 -13.66 11.36 -14 10 C-13.34 9.67 -12.68 9.34 -12 9 C-11.67 8.01 -11.34 7.02 -11 6 C-10.34 6 -9.68 6 -9 6 C-8.752 5.381 -8.505 4.762 -8.25 4.125 C-6.184 0.613 -3.97 0 0 0 Z M-17 14 C-16.01 14.33 -15.02 14.66 -14 15 C-14.99 16.485 -14.99 16.485 -16 18 C-16.604 20.381 -17.139 22.78 -17.625 25.188 C-17.885 26.46 -18.146 27.732 -18.414 29.043 C-18.607 30.019 -18.801 30.995 -19 32 C-19.33 32 -19.66 32 -20 32 C-20.428 25.585 -18.857 20.114 -17 14 Z " fill="#0E0E0E" transform="translate(47,27)"/>
<path d="M0 0 C0.33 0 0.66 0 1 0 C1.027 1.812 1.046 3.625 1.062 5.438 C1.074 6.447 1.086 7.456 1.098 8.496 C1 11 1 11 0 12 C0.66 12.33 1.32 12.66 2 13 C2 12.34 2 11.68 2 11 C3.654 9.651 5.322 8.319 7 7 C8.938 4.227 8.938 4.227 10 2 C10.99 2 11.98 2 13 2 C13.33 2.99 13.66 3.98 14 5 C10.04 8.96 6.08 12.92 2 17 C1.67 16.34 1.34 15.68 1 15 C0.01 15 -0.98 15 -2 15 C-1.036 4.442 -1.036 4.442 0 0 Z " fill="#0B0B0B" transform="translate(26,59)"/>
<path d="M0 0 C0.99 0.33 1.98 0.66 3 1 C3 3.64 3 6.28 3 9 C2.67 9 2.34 9 2 9 C1.67 7.02 1.34 5.04 1 3 C0.59 3.433 0.18 3.866 -0.242 4.312 C-0.781 4.869 -1.32 5.426 -1.875 6 C-2.409 6.557 -2.942 7.114 -3.492 7.688 C-5 9 -5 9 -7 9 C-7 9.66 -7 10.32 -7 11 C-7.66 11 -8.32 11 -9 11 C-9 11.66 -9 12.32 -9 13 C-9.66 13 -10.32 13 -11 13 C-11.33 13.66 -11.66 14.32 -12 15 C-12.33 14.01 -12.66 13.02 -13 12 C-11.211 10.184 -9.419 8.372 -7.625 6.562 C-7.117 6.046 -6.609 5.53 -6.086 4.998 C-2.227 1.113 -2.227 1.113 0 0 Z " fill="#080808" transform="translate(71,59)"/>
<path d="M0 0 C0.99 0 1.98 0 3 0 C3.33 0.99 3.66 1.98 4 3 C2.68 3.99 1.36 4.98 0 6 C-0.66 5.67 -1.32 5.34 -2 5 C-1 2 -1 2 0 0 Z " fill="#0E0E0E" transform="translate(36,61)"/>
</svg>
