<?xml version="1.0" encoding="UTF-8"?>
<svg version="1.1" xmlns="http://www.w3.org/2000/svg" width="216" height="216" viewBox="0 0 216 216">
  <path d="M 81 75 C 57 75 38 89 38 108 C 38 127 57 141 81 141 H 105 C 109 141 112 138 112 134 C 112 130 109 127 105 127 H 81 C 65 127 53 118 53 108 C 53 98 65 89 81 89 H 100 C 104 89 107 86 107 82 C 107 78 104 75 100 75 Z" fill="#1A1A1A"/>
  <path d="M 65 101 H 86 V 114 H 65 Z" fill="#1A1A1A"/>

  <path d="M 135 141 C 159 141 178 127 178 108 C 178 89 159 75 135 75 H 111 C 107 75 104 78 104 82 C 104 86 107 89 111 89 H 135 C 151 89 163 98 163 108 C 163 118 151 127 135 127 H 116 C 112 127 109 130 109 134 C 109 138 112 141 116 141 Z" fill="#1A1A1A"/>
  <path d="M 130 101 H 151 V 114 H 130 Z" fill="#1A1A1A"/>

  <path d="M 96 112 C 94 109 94 107 96 104 C 98 101 102 101 104 104 C 107 108 107 114 104 118 C 101 121 98 119 96 112 Z" fill="#1A1A1A"/>
</svg>
