<?xml version="1.0" encoding="UTF-8"?>
<svg version="1.1" xmlns="http://www.w3.org/2000/svg" width="24" height="24">
<path d="M0 0 C1.73745045 -0.00407216 3.4748983 -0.00941764 5.21234131 -0.01593018 C9.90242695 -0.02953295 14.5923132 -0.02433438 19.28240204 -0.01479292 C24.20731617 -0.00715967 29.13221405 -0.01425207 34.05712891 -0.01895142 C42.32522626 -0.02439833 50.59324303 -0.01724534 58.86132812 -0.00292969 C68.39931764 0.01339475 77.93711471 0.00810549 87.47509956 -0.0084089 C95.68690695 -0.02205415 103.89865665 -0.02392861 112.11047173 -0.0160929 C117.0050967 -0.01143306 121.89963143 -0.01074481 126.79425049 -0.02070236 C131.39743234 -0.02941409 136.00036781 -0.0232738 140.60352325 -0.00601959 C142.28564293 -0.00207711 143.9677836 -0.00315007 145.64989471 -0.00980759 C161.15370137 -0.06547819 175.07908802 2.11020347 186.8984375 13.07568359 C198.5816908 25.66869842 200.0388832 40.43922087 199.97412109 56.80224609 C199.97819326 58.53969654 199.98353873 60.27714439 199.99005127 62.0145874 C200.00365405 66.70467304 199.99845547 71.39455929 199.98891401 76.08464813 C199.98128076 81.00956227 199.98837316 85.93446014 199.99307251 90.859375 C199.99851943 99.12747235 199.99136643 107.39548912 199.97705078 115.66357422 C199.96072634 125.20156373 199.9660156 134.7393608 199.98253 144.27734566 C199.99617524 152.48915305 199.9980497 160.70090275 199.99021399 168.91271782 C199.98555415 173.80734279 199.9848659 178.70187753 199.99482346 183.59649658 C200.00353519 188.19967844 199.9973949 192.80261391 199.98014069 197.40576935 C199.97619821 199.08788902 199.97727117 200.77002969 199.98392868 202.45214081 C200.03959929 217.95594746 197.86391763 231.88133411 186.8984375 243.70068359 C174.30542267 255.38393689 159.53490023 256.8411293 143.171875 256.77636719 C141.43442455 256.78043935 139.6969767 256.78578483 137.95953369 256.79229736 C133.26944805 256.80590014 128.5795618 256.80070156 123.88947296 256.79116011 C118.96455883 256.78352685 114.03966095 256.79061925 109.11474609 256.7953186 C100.84664874 256.80076552 92.57863197 256.79361253 84.31054688 256.77929688 C74.77255736 256.76297243 65.23476029 256.76826169 55.69677544 256.78477609 C47.48496805 256.79842133 39.27321835 256.80029579 31.06140327 256.79246008 C26.1667783 256.78780024 21.27224357 256.787112 16.37762451 256.79706955 C11.77444266 256.80578128 7.17150719 256.79964099 2.56835175 256.78238678 C0.88623207 256.7784443 -0.7959086 256.77951726 -2.47801971 256.78617477 C-17.98182637 256.84184538 -31.90721302 254.66616372 -43.7265625 243.70068359 C-55.4098158 231.10766877 -56.8670082 216.33714632 -56.80224609 199.97412109 C-56.80631826 198.23667065 -56.81166373 196.4992228 -56.81817627 194.76177979 C-56.83177905 190.07169415 -56.82658047 185.3818079 -56.81703901 180.69171906 C-56.80940576 175.76680492 -56.81649816 170.84190704 -56.82119751 165.91699219 C-56.82664443 157.64889484 -56.81949143 149.38087807 -56.80517578 141.11279297 C-56.78885134 131.57480346 -56.7941406 122.03700638 -56.810655 112.49902153 C-56.82430024 104.28721414 -56.8261747 96.07546444 -56.81833899 87.86364937 C-56.81367915 82.9690244 -56.8129909 78.07448966 -56.82294846 73.17987061 C-56.83166019 68.57668875 -56.8255199 63.97375328 -56.80826569 59.37059784 C-56.80432321 57.68847817 -56.80539617 56.0063375 -56.81205368 54.32422638 C-56.86772429 38.82041972 -54.69204263 24.89503308 -43.7265625 13.07568359 C-31.13354767 1.39243029 -16.36302523 -0.06476211 0 0 Z " fill="#3B7FFD" transform="translate(56.4140625,-0.38818359375)"/>
<path d="M0 0 C0.88522339 -0.0127597 1.77044678 -0.02551941 2.68249512 -0.03866577 C4.11679871 -0.04200424 4.11679871 -0.04200424 5.58007812 -0.04541016 C6.57076294 -0.05206696 7.56144775 -0.05872375 8.58215332 -0.06558228 C10.68365625 -0.07571622 12.78519141 -0.08039907 14.88671875 -0.08007812 C18.07152075 -0.08441841 21.25489943 -0.12063886 24.43945312 -0.15869141 C26.48632342 -0.1645663 28.53320026 -0.16853119 30.58007812 -0.17041016 C31.99009094 -0.19196671 31.99009094 -0.19196671 33.42858887 -0.21395874 C44.35094143 -0.14013947 53.81775599 3.55760557 61.61132812 11.29052734 C69.55991407 21.08127484 70.72459821 31.05649496 69.61132812 43.29052734 C67.99453019 51.56983491 62.85507429 57.81509262 56.61132812 63.29052734 C53.39649157 65.32722647 50.14296717 66.88722706 46.61132812 68.29052734 C45.45832466 68.80554306 45.45832466 68.80554306 44.2820282 69.33096313 C41.50740412 70.32786653 39.45554995 70.55518148 36.52075195 70.58105469 C35.03814629 70.60019424 35.03814629 70.60019424 33.52558899 70.61972046 C31.93801033 70.62305893 31.93801033 70.62305893 30.31835938 70.62646484 C28.66654915 70.63645004 28.66654915 70.63645004 26.98136902 70.64663696 C24.65222846 70.6567526 22.32305899 70.66145432 19.99389648 70.66113281 C16.4537695 70.66549049 12.91490528 70.70178068 9.375 70.73974609 C7.10612403 70.74561775 4.83724217 70.74958481 2.56835938 70.75146484 C0.99596245 70.77302139 0.99596245 70.77302139 -0.60820007 70.79501343 C-11.64640778 70.72737416 -20.45522285 66.98080551 -28.38867188 59.29052734 C-34.13974989 52.53489422 -36.92730182 45.1349129 -37.76367188 36.35302734 C-37.38867188 33.29052734 -37.38867188 33.29052734 -36.26367188 31.35302734 C-33.51065638 29.79298523 -31.48833118 29.89482616 -28.38867188 30.29052734 C-26.392331 33.28503866 -26.06643598 34.54617859 -25.57617188 37.97802734 C-23.98122347 46.34237509 -20.11082843 51.26711984 -13.25585938 56.16162109 C-10.0775549 58.08323196 -7.41259957 58.42391738 -3.78466797 58.4675293 C-2.85294769 58.48036453 -1.92122742 58.49319977 -0.96127319 58.50642395 C0.04495087 58.51381088 1.05117493 58.52119781 2.08789062 58.52880859 C3.647621 58.54091621 3.647621 58.54091621 5.23886108 58.55326843 C7.44291519 58.56710607 9.6469907 58.57782966 11.85107422 58.58569336 C15.20256934 58.60285448 18.55306466 58.64673837 21.90429688 58.69091797 C24.04882089 58.70104982 26.19335328 58.70956438 28.33789062 58.71630859 C29.3319693 58.73381668 30.32604797 58.75132477 31.35025024 58.7693634 C39.22442554 58.74513068 45.23233549 56.99372145 51.42382812 52.04052734 C56.94079731 45.10490894 58.33909847 39.61907113 58.06054688 30.63818359 C57.22210459 24.38996587 54.21971718 20.57759463 49.67382812 16.41552734 C43.4286736 12.08215482 37.63205018 11.99858559 30.28710938 11.98193359 C28.26952811 11.95679404 26.25195005 11.93139574 24.234375 11.90576172 C21.06763402 11.87692611 17.90094837 11.8528925 14.73413086 11.83422852 C11.668181 11.81264567 8.6028475 11.77323715 5.53710938 11.73193359 C4.58709549 11.73181778 3.6370816 11.73170197 2.65827942 11.73158264 C1.77693832 11.71824387 0.89559723 11.70490509 -0.01245117 11.69116211 C-0.78711227 11.68609146 -1.56177338 11.68102081 -2.35990906 11.67579651 C-4.93783011 11.18624027 -5.82745588 10.3719009 -7.38867188 8.29052734 C-7.76367188 5.22802734 -7.76367188 5.22802734 -7.38867188 2.29052734 C-4.27278834 0.21327165 -3.54444745 0.03476119 0 0 Z " fill="#F9FBFE" transform="translate(150.388671875,92.70947265625)"/>
<path d="M0 0 C1.35279808 -0.01925285 1.35279808 -0.01925285 2.73292542 -0.03889465 C3.69754196 -0.04628159 4.66215851 -0.05366852 5.65600586 -0.0612793 C7.1675248 -0.07338692 7.1675248 -0.07338692 8.70957947 -0.08573914 C10.84201351 -0.09955033 12.97446938 -0.1102857 15.10693359 -0.11816406 C17.27041174 -0.12965385 19.43386222 -0.15005766 21.59716797 -0.1796875 C49.90707337 -0.56707937 49.90707337 -0.56707937 61.26928711 9.05981445 C68.27637209 16.33537012 71.80339936 24.01660887 72.62084961 33.98950195 C72.30834961 37.17700195 72.30834961 37.17700195 71.18334961 39.11450195 C68.43033411 40.67454407 66.40800891 40.57270314 63.30834961 40.17700195 C61.2111916 37.03126493 60.99071443 35.63886691 60.55834961 31.98950195 C59.35263429 24.81217294 55.97530879 20.71061318 50.80834961 15.80200195 C44.68973478 11.82490231 38.63696071 11.84426033 31.57397461 11.8059082 C30.54077087 11.79687973 29.50756714 11.78785126 28.4430542 11.77854919 C26.26113773 11.76407455 24.07917813 11.7551669 21.8972168 11.75146484 C18.58298369 11.73959022 15.27062664 11.6903934 11.95678711 11.63989258 C9.82919196 11.63042462 7.70158545 11.62319137 5.57397461 11.6184082 C4.59446838 11.59887589 3.61496216 11.57934357 2.60577393 11.55921936 C-4.41385448 11.60456376 -9.85663974 13.18722932 -15.69165039 17.17700195 C-20.83943603 22.48776017 -23.62196746 28.00132368 -24.12915039 35.42700195 C-23.95651202 41.82541143 -21.22476759 47.31988139 -17.01196289 52.0715332 C-10.49508847 58.02361184 -3.86675615 58.46632656 4.63256836 58.4855957 C6.65014963 58.51073526 8.66772769 58.53613355 10.68530273 58.56176758 C13.85204371 58.59060318 17.01872937 58.6146368 20.18554688 58.63330078 C23.25149673 58.65488363 26.31683024 58.69429214 29.38256836 58.7355957 C30.33258224 58.73571152 31.28259613 58.73582733 32.26139832 58.73594666 C33.14273941 58.74928543 34.02408051 58.76262421 34.93212891 58.77636719 C36.09412056 58.78397316 36.09412056 58.78397316 37.27958679 58.79173279 C39.85750784 59.28128903 40.74713362 60.09562839 42.30834961 62.17700195 C42.68334961 65.23950195 42.68334961 65.23950195 42.30834961 68.17700195 C39.17926215 70.26306026 38.45034489 70.43070806 34.88793945 70.45166016 C33.99626068 70.46119217 33.10458191 70.47072418 32.18588257 70.48054504 C30.74216782 70.47917793 30.74216782 70.47917793 29.26928711 70.4777832 C27.77614487 70.48421089 27.77614487 70.48421089 26.25283813 70.49076843 C24.14293172 70.4965155 22.03300549 70.49700923 19.9230957 70.49267578 C16.71652667 70.48953446 13.51089704 70.51290554 10.30444336 70.53833008 C8.2510591 70.54060509 6.19767237 70.54130563 4.14428711 70.5402832 C3.19395599 70.54949295 2.24362488 70.5587027 1.26449585 70.56819153 C-9.36902024 70.49545428 -17.67228071 67.214408 -25.69165039 60.17700195 C-33.34259978 51.36876611 -35.2882698 42.24653951 -35.04711914 30.7746582 C-34.56588642 25.90416001 -33.21707034 22.32465347 -30.69165039 18.17700195 C-30.11415039 17.14575195 -29.53665039 16.11450195 -28.94165039 15.05200195 C-21.57624319 5.64064831 -12.06556069 0.15079733 0 0 Z " fill="#FAFBFE" transform="translate(70.691650390625,92.822998046875)"/>
<path d="M0 0 C1.3602832 -0.0299707 1.3602832 -0.0299707 2.74804688 -0.06054688 C9.35374205 -0.05568617 9.35374205 -0.05568617 12.6953125 2.26953125 C14.0625 4.4375 14.0625 4.4375 14 7.5625 C13.0625 10.4375 13.0625 10.4375 10.0625 12.4375 C6.74336639 12.86571391 3.40632422 12.76177403 0.0625 12.75 C-1.31035156 12.77416992 -1.31035156 12.77416992 -2.7109375 12.79882812 C-3.59007812 12.79947266 -4.46921875 12.80011719 -5.375 12.80078125 C-6.57962891 12.80525269 -6.57962891 12.80525269 -7.80859375 12.80981445 C-10.46379018 12.34545957 -11.34281116 11.58146356 -12.9375 9.4375 C-13.58000037 4.29749705 -13.58000037 4.29749705 -11.69702148 1.77709961 C-8.33019248 -0.78621255 -4.07252291 -0.031704 0 0 Z " fill="#F7FAFE" transform="translate(169.9375,121.5625)"/>
<path d="M0 0 C0.82951172 -0.00386719 1.65902344 -0.00773437 2.51367188 -0.01171875 C3.37669922 -0.00011719 4.23972656 0.01148437 5.12890625 0.0234375 C5.98806641 0.01183594 6.84722656 0.00023438 7.73242188 -0.01171875 C11.39143976 0.00531314 13.98098013 0.02918867 17.26171875 1.734375 C18.69140625 3.3984375 18.69140625 3.3984375 19.12890625 6.3984375 C18.64278251 9.73185741 18.29503948 10.41176867 15.69140625 12.3984375 C12.40940104 13.02601909 9.089237 12.86190257 5.75390625 12.8359375 C4.84705078 12.85591797 3.94019531 12.87589844 3.00585938 12.89648438 C-3.61319447 12.89161384 -3.61319447 12.89161384 -6.94140625 10.53125 C-8.30859375 8.3984375 -8.30859375 8.3984375 -8.24609375 5.8359375 C-6.57526027 1.49177046 -4.63938738 0.02079777 0 0 Z " fill="#F9FAFE" transform="translate(80.30859375,121.6015625)"/>
</svg>
