<?xml version="1.0" encoding="UTF-8"?>
<svg version="1.1" xmlns="http://www.w3.org/2000/svg" width="216" height="216" viewBox="0 0 100 100">
  <style>
    .karing-link {
      fill: #1E1E1E;
      transition: fill 0.3s ease;
    }
    @media (prefers-color-scheme: dark) {
      .karing-link {
        fill: #FFFFFF;
      }
    }
  </style>

  <g class="karing-link">
    <path d="M 37.5 35 C 26.5 35 17.5 41.7 17.5 50 C 17.5 58.3 26.5 65 37.5 65 H 48.5 C 50.2 65 51.5 63.7 51.5 62 C 51.5 60.3 50.2 59 48.5 59 H 37.5 C 30.3 59 24.5 55 24.5 50 C 24.5 45 30.3 41 37.5 41 H 46 C 47.7 41 49 39.7 49 38 C 49 36.3 47.7 35 46 35 Z" />
    <rect x="30" y="47" width="10" height="6" rx="3" />

    <path d="M 62.5 65 C 73.5 65 82.5 58.3 82.5 50 C 82.5 41.7 73.5 35 62.5 35 H 51.5 C 49.8 35 48.5 36.3 48.5 38 C 48.5 39.7 49.8 41 51.5 41 H 62.5 C 69.7 41 75.5 45 75.5 50 C 75.5 55 69.7 59 62.5 59 H 54 C 52.3 59 51 60.3 51 62 C 51 63.7 52.3 65 54 65 Z" />
    <rect x="60" y="47" width="10" height="6" rx="3" />

    <path d="M 44.5 52 C 43.5 50.5 43.5 49.5 44.5 48 C 45.5 46.5 47.5 46.5 48.5 48 C 50 50 50 53 48.5 55 C 47 56.5 45.5 55.5 44.5 52 Z" />
  </g>
</svg>
