<svg version="1.1" id="Layer_1" xmlns="http://www.w3.org/2000/svg" xmlns:xlink="http://www.w3.org/1999/xlink" x="0px" y="0px"
	 width="100%" viewBox="0 0 256 256" enable-background="new 0 0 256 256" xml:space="preserve">
<path fill="#4B6DFF" opacity="1.000000" stroke="none" 
	d="
M217.000000,1.000000 
	C218.066788,1.000000 219.133575,1.000000 220.295563,1.327360 
	C223.610245,3.060111 226.829727,4.465503 229.984161,6.217495 
	C225.266006,11.223207 220.649216,15.919216 215.953415,20.534849 
	C198.308380,37.878620 180.663345,55.222561 162.966064,72.512955 
	C153.469803,81.790878 143.875183,90.968269 134.298294,100.163261 
	C133.471771,100.956810 132.444977,101.541771 131.192841,102.141769 
	C127.867767,100.203758 124.861092,98.347610 121.893684,96.095032 
	C122.898758,94.022644 123.570450,92.054321 124.888420,90.728424 
	C128.156647,87.440552 131.832672,84.561050 135.146591,81.315056 
	C155.092026,61.778427 174.975708,42.178741 194.902527,22.623058 
	C196.317581,21.234346 198.034363,20.145567 199.401703,18.717106 
	C204.641541,13.243077 209.795990,7.687289 215.279022,2.087065 
	C216.050491,1.674744 216.525253,1.337372 217.000000,1.000000 
z"/>
<path fill="#3E8FFE" opacity="1.000000" stroke="none" 
	d="
M41.000000,257.000000 
	C39.285625,257.000000 37.571247,257.000000 35.755985,256.715698 
	C33.422295,255.331223 31.189487,254.231049 28.847086,252.822250 
	C29.485771,250.848434 29.835217,248.780029 31.045973,247.582352 
	C40.025387,238.699768 49.239464,230.055008 58.260075,221.213379 
	C79.166275,200.721924 99.985550,180.141769 120.909492,159.668533 
	C122.506096,158.106323 124.649780,157.103241 126.838852,155.955688 
	C130.154678,157.906891 133.170837,159.742661 136.021423,161.902893 
	C124.114037,173.778000 112.379051,185.335617 100.628815,196.877731 
	C82.333717,214.848740 64.003502,232.784225 45.779377,250.826889 
	C44.474892,252.118362 43.914848,254.161774 42.714397,255.930222 
	C41.946751,256.336609 41.473377,256.668304 41.000000,257.000000 
z"/>
<path fill="#4B6DFF" opacity="1.000000" stroke="none" 
	d="
M0.999998,223.000000 
	C1.000000,221.285629 1.000000,219.571243 1.300949,217.159637 
	C1.788318,213.969604 1.974737,211.476776 2.485464,208.920288 
	C3.864104,208.079819 5.027284,207.414795 5.956503,206.509583 
	C20.679537,192.167160 35.366024,177.787231 50.083767,163.439346 
	C51.380707,162.175003 52.836884,161.073990 54.570740,159.957245 
	C58.947090,161.384171 62.971794,162.750961 66.931427,164.447662 
	C65.739197,166.190109 64.747894,167.742233 63.463161,168.992935 
	C53.941597,178.262268 44.323112,187.432159 34.813866,196.714020 
	C28.624968,202.754898 22.757881,209.138367 16.384010,214.972198 
	C12.321551,218.690445 7.595888,221.684097 3.083017,224.600891 
	C2.332296,223.799438 1.666146,223.399719 0.999998,223.000000 
z"/>
<path fill="#3E8FFE" opacity="1.000000" stroke="none" 
	d="
M257.000000,36.000000 
	C257.000000,37.388996 257.000000,38.777996 256.701874,40.845840 
	C256.218597,43.686981 256.033447,45.849270 255.523224,48.075951 
	C249.529541,53.196121 243.726028,58.109871 238.221146,63.338036 
	C227.642746,73.384743 217.203949,83.579453 206.793503,93.800621 
	C205.557785,95.013863 204.860580,96.775612 203.563965,98.168213 
	C198.809845,96.649155 194.405518,95.244995 190.069061,93.513855 
	C193.653137,89.728096 197.163574,86.263412 200.686523,82.811523 
	C217.047638,66.780434 233.431671,50.772629 249.740005,34.688057 
	C251.098114,33.348595 251.953674,31.499582 253.376831,30.072205 
	C254.148514,31.748545 254.448837,33.302708 255.088104,34.702007 
	C255.361679,35.300838 256.341217,35.577141 257.000000,36.000000 
z"/>
<path fill="#02F0F3" opacity="1.000000" stroke="none" 
	d="
M223.000000,257.000000 
	C220.958328,257.000000 218.916672,257.000000 216.259628,256.708801 
	C214.760300,256.225952 213.876358,256.034302 213.012253,255.489258 
	C213.527191,254.115936 213.790344,252.859894 214.552185,252.111588 
	C225.832657,241.031525 237.126190,229.963272 248.558029,219.040192 
	C250.668289,217.023849 253.401062,215.659073 255.908096,214.330078 
	C256.313141,215.444412 256.656555,216.222198 257.000000,217.000000 
	C257.000000,218.714417 257.000000,220.428848 256.700073,222.238556 
	C256.143463,222.544754 255.731140,222.709259 255.652451,222.973221 
	C250.713394,239.541489 240.491821,250.805573 223.416245,255.280014 
	C223.145828,255.350876 223.133011,256.404816 223.000000,257.000000 
z"/>
<path fill="#5809FF" opacity="1.000000" stroke="none" 
	d="
M36.000000,1.000000 
	C37.388889,1.000000 38.777779,1.000000 40.784744,1.302908 
	C42.599648,1.786506 43.796471,1.967196 44.927307,2.474856 
	C44.647087,3.247084 44.535774,3.797482 44.203793,4.122453 
	C30.946636,17.099752 17.676712,30.064066 4.369244,42.989708 
	C3.821070,43.522152 2.896482,43.667065 2.086980,43.656654 
	C1.684464,42.547188 1.342232,41.773594 1.000000,41.000000 
	C1.000000,39.285839 1.000000,37.571674 1.300663,35.748119 
	C2.052668,34.997692 2.707552,34.418922 2.925475,33.706490 
	C7.894504,17.461735 18.313057,6.934813 34.997013,2.855335 
	C35.455170,2.743309 35.671112,1.640693 36.000000,1.000000 
z"/>
<path fill="#000000" opacity="1.000000" stroke="none" 
	d="
M257.000000,35.531342 
	C256.341217,35.577141 255.361679,35.300838 255.088104,34.702007 
	C254.448837,33.302708 254.148514,31.748545 253.362274,29.701275 
	C251.358368,26.392603 249.703140,23.639753 248.031616,20.538450 
	C245.690933,17.755276 243.366531,15.320554 240.905426,12.571264 
	C237.195572,10.128094 233.622391,7.999490 230.049225,5.870891 
	C226.829727,4.465503 223.610245,3.060111 220.695374,1.327360 
	C232.925568,1.000000 244.851135,1.000000 257.000000,1.000000 
	C257.000000,12.353253 257.000000,23.707968 257.000000,35.531342 
z"/>
<path fill="#000000" opacity="1.000000" stroke="none" 
	d="
M35.531342,1.000000 
	C35.671112,1.640693 35.455170,2.743309 34.997013,2.855335 
	C18.313057,6.934813 7.894504,17.461735 2.925475,33.706490 
	C2.707552,34.418922 2.052668,34.997692 1.300663,35.319363 
	C1.000000,23.739021 1.000000,12.478042 1.000000,1.000000 
	C12.353307,1.000000 23.707994,1.000000 35.531342,1.000000 
z"/>
<path fill="#000000" opacity="1.000000" stroke="none" 
	d="
M0.999998,223.468658 
	C1.666146,223.399719 2.332296,223.799438 3.018588,224.972931 
	C4.981619,229.523254 6.924507,233.299789 9.016320,237.384644 
	C11.095666,239.832855 13.026087,241.972763 15.047224,244.374756 
	C15.702754,245.093018 16.267567,245.549194 16.984852,246.326630 
	C21.077110,248.808868 25.016893,250.969864 28.956680,253.130859 
	C31.189487,254.231049 33.422295,255.331223 35.327549,256.715698 
	C23.740093,257.000000 12.480186,257.000000 1.000000,257.000000 
	C1.000000,245.980087 1.000000,234.958694 0.999998,223.468658 
z"/>
<path fill="#000000" opacity="1.000000" stroke="none" 
	d="
M223.468658,257.000000 
	C223.133011,256.404816 223.145828,255.350876 223.416245,255.280014 
	C240.491821,250.805573 250.713394,239.541489 255.652451,222.973221 
	C255.731140,222.709259 256.143463,222.544754 256.700073,222.666916 
	C257.000000,234.259903 257.000000,245.519821 257.000000,257.000000 
	C245.980087,257.000000 234.958694,257.000000 223.468658,257.000000 
z"/>
<path fill="#98EDFC" opacity="1.000000" stroke="none" 
	d="
M257.000000,216.531342 
	C256.656555,216.222198 256.313141,215.444412 255.965332,213.865189 
	C255.919205,206.042145 255.877426,199.020538 255.893280,191.533661 
	C255.911591,184.713806 255.872238,178.359177 255.890396,171.543854 
	C255.908905,167.056168 255.869919,163.029160 255.888489,158.554840 
	C255.907822,155.406647 255.869583,152.705750 255.889038,149.606445 
	C256.019501,148.138168 256.092255,147.068298 256.373779,146.001831 
	C256.582520,146.005234 257.000000,146.000000 257.000000,146.000000 
	C257.000000,169.354233 257.000000,192.708450 257.000000,216.531342 
z"/>
<path fill="#A0D3FF" opacity="1.000000" stroke="none" 
	d="
M41.468658,257.000000 
	C41.473377,256.668304 41.946751,256.336609 43.179413,255.982056 
	C49.962769,255.922409 55.986832,255.885590 62.475849,255.899963 
	C68.963760,255.911835 74.986725,255.872543 81.471283,255.885193 
	C86.291641,255.902924 90.650406,255.868713 95.469666,255.886536 
	C99.968681,256.017548 104.007195,256.096497 108.033447,256.381531 
	C108.021187,256.587616 108.000000,257.000000 108.000000,257.000000 
	C85.979103,257.000000 63.958210,257.000000 41.468658,257.000000 
z"/>
<path fill="#A8ACFF" opacity="1.000000" stroke="none" 
	d="
M216.531342,1.000000 
	C216.525253,1.337372 216.050491,1.674744 214.814713,2.036915 
	C208.032913,2.094692 202.012161,2.127670 195.529480,2.110656 
	C190.708557,2.093483 186.349548,2.126303 181.530548,2.106873 
	C177.043533,2.087662 173.016525,2.120702 168.527832,2.102444 
	C163.695435,1.974977 159.324707,1.898807 154.966309,1.617023 
	C154.978622,1.411410 155.000000,1.000000 155.000000,1.000000 
	C175.354233,1.000000 195.708450,1.000000 216.531342,1.000000 
z"/>
<path fill="#AC90FF" opacity="1.000000" stroke="none" 
	d="
M1.000000,41.468658 
	C1.342232,41.773594 1.684464,42.547188 2.026440,44.117027 
	C2.071298,48.937698 2.116414,52.962120 2.100586,57.450310 
	C2.081277,62.606136 2.122912,67.298195 2.105967,72.455841 
	C2.089076,78.941277 2.130764,84.961121 2.115849,91.433571 
	C1.985200,94.928757 1.911152,97.971344 1.627794,101.012466 
	C1.418485,101.010994 1.000000,101.000000 1.000000,101.000000 
	C1.000000,81.312439 1.000000,61.624878 1.000000,41.468658 
z"/>
<path fill="#AC8FFF" opacity="1.000000" stroke="none" 
	d="
M44.993294,2.147887 
	C43.796471,1.967196 42.599648,1.786506 41.201412,1.302908 
	C60.354229,1.000000 79.708458,1.000000 99.534569,1.208553 
	C100.006454,1.417107 100.014023,1.834195 99.576981,1.892438 
	C97.087067,2.024680 95.034187,2.098679 92.516998,2.120791 
	C86.031830,2.100889 80.010986,2.132874 73.526550,2.111260 
	C68.037445,2.091686 63.011929,2.125710 57.526897,2.104930 
	C53.042686,2.082712 49.017990,2.115299 44.993294,2.147887 
z"/>
<path fill="#A8AEFF" opacity="1.000000" stroke="none" 
	d="
M2.161156,208.983963 
	C1.974737,211.476776 1.788318,213.969604 1.300949,216.731201 
	C1.000000,197.979111 1.000000,178.958206 1.211635,159.474014 
	C1.423270,159.010712 1.846673,159.012283 1.902268,159.341171 
	C2.020438,160.110077 2.083014,160.550110 2.090963,161.452545 
	C2.074699,166.275772 2.113062,170.636581 2.099486,175.461044 
	C2.083590,180.613846 2.119631,185.303009 2.104190,190.458359 
	C2.088856,196.944366 2.125005,202.964157 2.161156,208.983963 
z"/>
<path fill="#A99FFF" opacity="1.000000" stroke="none" 
	d="
M1.846673,159.012283 
	C1.846673,159.012283 1.423270,159.010712 1.211635,159.005356 
	C1.000000,139.979111 1.000000,120.958214 1.000000,101.468658 
	C1.000000,101.000000 1.418485,101.010994 1.678656,101.463043 
	C2.011134,104.938690 2.083440,107.962288 2.096791,111.451813 
	C2.079308,117.607460 2.120780,123.297180 2.105972,129.443176 
	C2.087216,133.262039 2.124741,136.624619 2.108270,140.435547 
	C2.091134,143.585175 2.127993,146.286453 2.113008,149.440323 
	C1.989667,152.932709 1.918170,155.972504 1.846673,159.012283 
z"/>
<path fill="#9CE3FD" opacity="1.000000" stroke="none" 
	d="
M108.468658,257.000000 
	C108.000000,257.000000 108.021187,256.587616 108.016670,256.295013 
	C108.012154,256.002411 107.953278,255.836426 108.418884,255.888824 
	C113.262283,255.907333 117.640068,255.873444 122.443390,255.891968 
	C124.582672,255.909256 126.296410,255.874100 128.464630,255.894928 
	C132.279312,255.912308 135.639481,255.873703 139.440979,255.893570 
	C142.255203,255.912842 144.628128,255.873642 147.447845,255.893280 
	C150.595734,255.913025 153.296799,255.873962 156.438873,255.893738 
	C159.251495,256.023712 161.623093,256.094849 163.996124,256.374481 
	C163.997528,256.582977 164.000000,257.000000 164.000000,257.000000 
	C145.645767,257.000000 127.291542,257.000000 108.468658,257.000000 
z"/>
<path fill="#9EDDFD" opacity="1.000000" stroke="none" 
	d="
M257.000000,145.531342 
	C257.000000,146.000000 256.582520,146.005234 256.316742,145.604187 
	C255.979782,144.135635 255.908585,143.068146 255.896301,141.549683 
	C255.916977,138.068192 255.878723,135.037659 255.899231,131.581909 
	C255.918900,129.442245 255.879837,127.727798 255.901031,125.549927 
	C255.919693,120.398300 255.878052,115.710091 255.895538,110.560043 
	C255.917221,106.072548 255.879776,102.046890 255.897614,97.585190 
	C256.022064,95.100746 256.091248,93.052345 256.370300,91.005249 
	C256.580231,91.006554 257.000000,91.000000 257.000000,91.000000 
	C257.000000,109.020897 257.000000,127.041786 257.000000,145.531342 
z"/>
<path fill="#AA9EFF" opacity="1.000000" stroke="none" 
	d="
M100.014023,1.834195 
	C100.014023,1.834195 100.006454,1.417107 100.003227,1.208553 
	C118.020897,1.000000 136.041794,1.000000 154.531342,1.000000 
	C155.000000,1.000000 154.978622,1.411410 154.989456,1.704212 
	C155.000290,1.997015 155.049240,2.170399 154.589676,2.118807 
	C150.748825,2.099296 147.367523,2.131377 143.528778,2.113428 
	C139.376266,2.096546 135.681229,2.129694 131.521667,2.111392 
	C125.366409,2.092345 119.675652,2.124747 113.523811,2.105597 
	C108.713165,1.980761 104.363594,1.907478 100.014023,1.834195 
z"/>
<path fill="#97F0FB" opacity="1.000000" stroke="none" 
	d="
M164.468658,257.000000 
	C164.000000,257.000000 163.997528,256.582977 164.411072,256.314819 
	C166.218796,255.975082 167.613007,255.903473 169.472046,255.889801 
	C176.625488,255.909805 183.314102,255.871887 190.467957,255.891815 
	C198.286255,255.914017 205.639328,255.878342 212.992401,255.842651 
	C213.876358,256.034302 214.760300,256.225952 215.822128,256.708801 
	C198.979111,257.000000 181.958206,257.000000 164.468658,257.000000 
z"/>
<path fill="#A0D0FF" opacity="1.000000" stroke="none" 
	d="
M257.000000,90.531342 
	C257.000000,91.000000 256.580231,91.006554 256.316315,90.569939 
	C255.980667,88.090927 255.908920,86.048538 255.890350,83.540169 
	C255.912262,77.383774 255.880981,71.693344 255.900421,65.537277 
	C255.916885,59.384945 255.882599,53.698254 255.848297,48.011559 
	C256.033447,45.849270 256.218597,43.686981 256.701874,41.262344 
	C257.000000,57.354229 257.000000,73.708458 257.000000,90.531342 
z"/>
<path fill="#FAFBFF" opacity="1.000000" stroke="none" 
	d="
M66.996498,164.117767 
	C62.971794,162.750961 58.947090,161.384171 54.363483,159.686951 
	C50.744545,156.822052 47.684505,154.287598 44.456940,151.439331 
	C42.362053,147.767288 40.434692,144.409073 38.427681,140.705627 
	C37.762074,137.572784 37.176121,134.785156 36.645798,131.543060 
	C37.346931,126.443321 37.992432,121.798088 38.802967,116.872139 
	C43.423363,105.440384 51.916687,98.788872 63.420273,95.041550 
	C68.559540,94.689682 73.279152,94.320358 78.455185,94.038101 
	C82.940842,94.058990 86.970093,93.992805 91.457764,94.009308 
	C96.276802,94.030037 100.637436,93.968086 105.444679,93.985367 
	C111.212341,94.873558 116.533379,95.682510 121.854424,96.491470 
	C124.861092,98.347610 127.867767,100.203758 131.385651,102.428444 
	C134.770844,106.511971 137.644806,110.226959 140.616989,114.252365 
	C141.616287,117.412918 142.517349,120.263054 143.430191,123.543793 
	C142.848892,127.030914 142.879074,130.467148 141.360413,132.959732 
	C140.740524,133.977158 136.764557,132.949799 134.174286,132.478989 
	C133.001343,128.069107 131.969589,124.032967 130.907227,119.656281 
	C127.629105,115.732674 124.381592,112.149605 120.882629,108.325790 
	C115.752213,107.106651 110.873253,106.128242 105.530319,105.083313 
	C98.376518,105.067192 91.686699,105.117599 84.532898,105.104050 
	C79.583031,105.040749 75.090363,104.881142 70.612450,105.070427 
	C53.368637,105.799324 42.482544,123.644585 49.864105,139.410034 
	C53.612297,143.420654 57.303646,147.081650 61.334679,150.953781 
	C67.449532,151.789124 73.224693,152.413315 79.459160,153.130127 
	C84.945404,153.146713 89.972343,153.070694 95.458740,153.082306 
	C101.282104,153.436264 106.646004,153.702576 112.212265,154.283249 
	C115.793167,160.219650 113.889839,163.827423 107.440674,164.023956 
	C105.294395,164.089371 103.148010,164.151184 100.560898,164.148407 
	C97.745895,164.134399 95.371681,164.186615 92.547653,164.170471 
	C89.063713,164.157333 86.029579,164.212570 82.580917,164.220642 
	C77.109756,164.154907 72.053131,164.136337 66.996498,164.117767 
z"/>
<path fill="#4877FF" opacity="1.000000" stroke="none" 
	d="
M140.518753,113.941940 
	C137.644806,110.226959 134.770844,106.511971 131.704056,102.510315 
	C132.444977,101.541771 133.471771,100.956810 134.298294,100.163261 
	C143.875183,90.968269 153.469803,81.790878 162.966064,72.512955 
	C180.663345,55.222561 198.308380,37.878620 215.953415,20.534849 
	C220.649216,15.919216 225.266006,11.223207 229.984161,6.217492 
	C233.622391,7.999490 237.195572,10.128094 240.841293,12.917128 
	C237.307327,17.187609 233.726929,20.824198 230.089905,24.403280 
	C210.271545,43.906086 190.444504,63.400112 170.604080,82.880493 
	C168.469177,84.976646 166.039291,86.804131 164.112991,89.068291 
	C163.071625,90.292297 162.806717,92.176872 161.779388,93.834801 
	C157.555084,93.930931 153.678070,93.547913 149.956085,94.139793 
	C147.862732,94.472687 144.598282,96.229141 144.409805,97.676201 
	C144.132812,99.802605 146.135284,102.225929 147.088577,104.898056 
	C144.846588,108.162888 142.682663,111.052414 140.518753,113.941940 
z"/>
<path fill="#4D64FF" opacity="1.000000" stroke="none" 
	d="
M121.893684,96.095032 
	C116.533379,95.682510 111.212341,94.873558 105.509796,93.653885 
	C110.764297,87.649643 116.380508,82.036018 122.039841,76.466202 
	C141.969803,56.851509 161.905029,37.242146 181.869156,17.662277 
	C183.760269,15.807573 186.084946,14.365342 187.826141,12.394036 
	C190.711456,9.127386 193.285950,5.586182 195.991394,2.160648 
	C202.012161,2.127670 208.032913,2.094692 214.518005,2.111865 
	C209.795990,7.687289 204.641541,13.243077 199.401703,18.717106 
	C198.034363,20.145567 196.317581,21.234346 194.902527,22.623058 
	C174.975708,42.178741 155.092026,61.778427 135.146591,81.315056 
	C131.832672,84.561050 128.156647,87.440552 124.888420,90.728424 
	C123.570450,92.054321 122.898758,94.022644 121.893684,96.095032 
z"/>
<path fill="#FAFCFF" opacity="1.000000" stroke="none" 
	d="
M147.166641,104.522758 
	C146.135284,102.225929 144.132812,99.802605 144.409805,97.676201 
	C144.598282,96.229141 147.862732,94.472687 149.956085,94.139793 
	C153.678070,93.547913 157.555084,93.930931 162.165436,93.903137 
	C167.642502,93.843056 172.321350,93.785995 177.458282,93.800911 
	C181.944641,93.862198 185.972916,93.851517 190.001190,93.840836 
	C194.405518,95.244995 198.809845,96.649155 203.761627,98.426987 
	C207.055527,100.934250 209.801971,103.067825 212.711365,105.509102 
	C214.986420,109.213120 217.098541,112.609444 219.255264,116.381241 
	C220.101593,120.504929 220.903305,124.253120 221.579422,128.437225 
	C220.570328,133.537552 219.686813,138.201935 218.844528,142.876709 
	C218.885757,142.887070 218.893494,142.802399 218.673828,142.921921 
	C218.218475,143.312271 218.132004,143.624405 217.984161,144.258545 
	C214.110870,151.476624 208.670319,156.623886 201.460236,160.480042 
	C196.057816,161.747696 191.031097,162.903061 185.544434,163.974426 
	C180.391022,163.954147 175.697571,164.017883 170.541489,164.001389 
	C164.053665,163.982574 158.028458,164.044022 151.561371,164.029877 
	C146.141983,163.162338 141.164490,162.370392 136.186981,161.578445 
	C133.170837,159.742661 130.154678,157.906891 126.642464,155.663956 
	C123.751236,152.504883 121.356087,149.752991 118.890511,146.652802 
	C117.309578,142.179443 115.799072,138.054382 114.315247,133.507874 
	C113.856003,124.450897 116.946182,121.923431 123.954849,125.680099 
	C125.060913,130.034225 126.062294,134.017868 127.091522,138.348251 
	C129.713394,141.813354 132.307419,144.931702 135.108734,148.335144 
	C139.210892,150.013580 143.105759,151.406967 147.457947,152.880402 
	C151.944366,152.920914 155.973450,152.881378 160.459106,152.907272 
	C164.610519,152.925385 168.305405,152.878036 172.459686,152.894958 
	C176.945496,152.909760 180.971924,152.860291 185.418732,152.873688 
	C200.724121,152.401703 211.158264,141.714828 210.314178,127.522629 
	C209.279541,123.690697 208.178391,120.272987 207.009247,116.532486 
	C205.363647,114.438469 203.786026,112.667259 202.032928,110.595856 
	C198.630508,108.690544 195.403534,107.085434 191.788177,105.317451 
	C186.600571,105.095497 181.801361,105.036407 176.544205,104.889267 
	C171.724472,104.870262 167.362671,104.939316 162.540619,104.924210 
	C157.109131,104.734283 152.137878,104.628517 147.166641,104.522758 
z"/>
<path fill="#3799FD" opacity="1.000000" stroke="none" 
	d="
M136.021423,161.902893 
	C141.164490,162.370392 146.141983,163.162338 151.544342,164.384720 
	C150.916489,166.439545 150.118042,168.323608 148.768585,169.644882 
	C141.657471,176.607391 134.328781,183.347733 127.220276,190.312805 
	C106.463303,210.650955 85.762733,231.046783 65.089935,251.470490 
	C63.840866,252.704483 63.027161,254.379150 62.010887,255.848785 
	C55.986832,255.885590 49.962769,255.922409 43.473686,255.907394 
	C43.914848,254.161774 44.474892,252.118362 45.779377,250.826889 
	C64.003502,232.784225 82.333717,214.848740 100.628815,196.877731 
	C112.379051,185.335617 124.114037,173.778000 136.021423,161.902893 
z"/>
<path fill="#4288FF" opacity="1.000000" stroke="none" 
	d="
M118.960938,147.001099 
	C121.356087,149.752991 123.751236,152.504883 126.342773,155.548523 
	C124.649780,157.103241 122.506096,158.106323 120.909492,159.668533 
	C99.985550,180.141769 79.166275,200.721924 58.260075,221.213379 
	C49.239464,230.055008 40.025387,238.699768 31.045973,247.582352 
	C29.835217,248.780029 29.485771,250.848434 28.847084,252.822266 
	C25.016893,250.969864 21.077110,248.808868 17.357641,246.312424 
	C19.228676,244.974548 21.108896,244.218231 22.491819,242.928635 
	C29.898014,236.022247 37.247601,229.051895 44.491920,221.975845 
	C62.442558,204.442108 80.350021,186.863846 98.185089,169.212784 
	C99.492371,167.918991 100.079651,165.897705 101.001671,164.214630 
	C103.148010,164.151184 105.294395,164.089371 107.440674,164.023956 
	C113.889839,163.827423 115.793167,160.219650 112.271164,153.947342 
	C114.405441,151.198425 116.683189,149.099762 118.960938,147.001099 
z"/>
<path fill="#4877FF" opacity="1.000000" stroke="none" 
	d="
M66.931427,164.447662 
	C72.053131,164.136337 77.109756,164.154907 82.562698,164.564896 
	C81.756500,166.687012 80.790405,168.657791 79.314636,170.110962 
	C65.799011,183.419617 52.217678,196.661865 38.608196,209.874725 
	C30.256002,217.983536 21.849943,226.037643 13.393278,234.037247 
	C12.091348,235.268784 10.386110,236.073975 8.867395,237.076340 
	C6.924507,233.299789 4.981619,229.523254 3.103159,225.374664 
	C7.595888,221.684097 12.321551,218.690445 16.384010,214.972198 
	C22.757881,209.138367 28.624968,202.754898 34.813866,196.714020 
	C44.323112,187.432159 53.941597,178.262268 63.463161,168.992935 
	C64.747894,167.742233 65.739197,166.190109 66.931427,164.447662 
z"/>
<path fill="#4E64FF" opacity="1.000000" stroke="none" 
	d="
M44.624466,151.753143 
	C47.684505,154.287598 50.744545,156.822052 54.011841,159.626801 
	C52.836884,161.073990 51.380707,162.175003 50.083767,163.439346 
	C35.366024,177.787231 20.679537,192.167160 5.956503,206.509583 
	C5.027284,207.414795 3.864104,208.079819 2.485463,208.920288 
	C2.125005,202.964157 2.088856,196.944366 2.453500,190.443634 
	C4.243047,189.134521 5.850187,188.533875 6.986730,187.442947 
	C18.153618,176.724380 29.229973,165.911530 40.369465,155.164246 
	C41.672195,153.907379 43.200657,152.884491 44.624466,151.753143 
z"/>
<path fill="#4287FF" opacity="1.000000" stroke="none" 
	d="
M190.069061,93.513855 
	C185.972916,93.851517 181.944641,93.862198 177.461700,93.438553 
	C177.895294,91.312164 178.458923,89.304466 179.736237,87.990608 
	C182.854584,84.783051 186.393951,81.989639 189.601349,78.862839 
	C197.944077,70.729736 206.217804,62.525490 214.485214,54.315544 
	C225.689285,43.189308 236.861832,32.031288 248.047897,20.886906 
	C249.703140,23.639753 251.358368,26.392603 253.028152,29.516384 
	C251.953674,31.499582 251.098114,33.348595 249.740005,34.688057 
	C233.431671,50.772629 217.047638,66.780434 200.686523,82.811523 
	C197.163574,86.263412 193.653137,89.728096 190.069061,93.513855 
z"/>
<path fill="#3899FD" opacity="1.000000" stroke="none" 
	d="
M212.548416,105.201416 
	C209.801971,103.067825 207.055527,100.934250 204.111420,98.541885 
	C204.860580,96.775612 205.557785,95.013863 206.793503,93.800621 
	C217.203949,83.579453 227.642746,73.384743 238.221146,63.338036 
	C243.726028,58.109871 249.529541,53.196121 255.523224,48.075951 
	C255.882599,53.698254 255.916885,59.384945 255.550812,65.553375 
	C252.475601,68.148109 249.631912,70.081100 247.154785,72.404861 
	C235.564026,83.278099 224.074265,94.258987 212.548416,105.201416 
z"/>
<path fill="#00E6F5" opacity="1.000000" stroke="none" 
	d="
M213.012253,255.489258 
	C205.639328,255.878342 198.286255,255.914017 190.535690,255.566635 
	C191.268860,253.778915 192.266663,252.237122 193.551910,250.992004 
	C201.401199,243.387756 209.344666,235.880768 217.201691,228.284439 
	C228.873688,216.999680 240.484680,205.651794 252.172256,194.383270 
	C253.202225,193.390228 254.605667,192.784531 255.835632,191.998932 
	C255.877426,199.020538 255.919205,206.042145 255.903748,213.528656 
	C253.401062,215.659073 250.668289,217.023849 248.558029,219.040192 
	C237.126190,229.963272 225.832657,241.031525 214.552185,252.111588 
	C213.790344,252.859894 213.527191,254.115936 213.012253,255.489258 
z"/>
<path fill="#5510FF" opacity="1.000000" stroke="none" 
	d="
M44.927307,2.474856 
	C49.017990,2.115299 53.042686,2.082712 57.462189,2.430793 
	C56.846684,4.099010 55.964279,5.516672 54.806789,6.654501 
	C38.510796,22.673746 22.188740,38.666580 5.825797,54.617393 
	C4.804780,55.612694 3.392029,56.206139 2.161530,56.986542 
	C2.116414,52.962120 2.071298,48.937698 2.086723,44.452904 
	C2.896482,43.667065 3.821070,43.522152 4.369244,42.989708 
	C17.676712,30.064066 30.946636,17.099752 44.203793,4.122453 
	C44.535774,3.797482 44.647087,3.247084 44.927307,2.474856 
z"/>
<path fill="#457FFF" opacity="1.000000" stroke="none" 
	d="
M248.031616,20.538452 
	C236.861832,32.031288 225.689285,43.189308 214.485214,54.315544 
	C206.217804,62.525490 197.944077,70.729736 189.601349,78.862839 
	C186.393951,81.989639 182.854584,84.783051 179.736237,87.990608 
	C178.458923,89.304466 177.895294,91.312164 177.003616,93.366592 
	C172.321350,93.785995 167.642502,93.843056 162.577576,93.831787 
	C162.806717,92.176872 163.071625,90.292297 164.112991,89.068291 
	C166.039291,86.804131 168.469177,84.976646 170.604080,82.880493 
	C190.444504,63.400112 210.271545,43.906086 230.089905,24.403280 
	C233.726929,20.824198 237.307327,17.187609 240.977997,13.231695 
	C243.366531,15.320554 245.690933,17.755276 248.031616,20.538452 
z"/>
<path fill="#467EFF" opacity="1.000000" stroke="none" 
	d="
M9.016319,237.384644 
	C10.386110,236.073975 12.091348,235.268784 13.393278,234.037247 
	C21.849943,226.037643 30.256002,217.983536 38.608196,209.874725 
	C52.217678,196.661865 65.799011,183.419617 79.314636,170.110962 
	C80.790405,168.657791 81.756500,166.687012 82.977219,164.612061 
	C86.029579,164.212570 89.063713,164.157333 92.529388,164.523163 
	C91.610031,167.159973 90.635750,169.755356 88.847031,171.529709 
	C77.412399,182.872391 65.802773,194.038742 54.240364,205.252426 
	C51.976543,207.447983 49.622456,209.551620 47.386818,211.774902 
	C36.562340,222.539688 25.764069,233.330856 14.956505,244.112671 
	C13.026087,241.972763 11.095666,239.832855 9.016319,237.384644 
z"/>
<path fill="#4482FF" opacity="1.000000" stroke="none" 
	d="
M15.047222,244.374756 
	C25.764069,233.330856 36.562340,222.539688 47.386818,211.774902 
	C49.622456,209.551620 51.976543,207.447983 54.240364,205.252426 
	C65.802773,194.038742 77.412399,182.872391 88.847031,171.529709 
	C90.635750,169.755356 91.610031,167.159973 92.979187,164.591537 
	C95.371681,164.186615 97.745895,164.134399 100.560898,164.148407 
	C100.079651,165.897705 99.492371,167.918991 98.185089,169.212784 
	C80.350021,186.863846 62.442558,204.442108 44.491920,221.975845 
	C37.247601,229.051895 29.898014,236.022247 22.491819,242.928635 
	C21.108896,244.218231 19.228676,244.974548 17.205168,245.991180 
	C16.267567,245.549194 15.702754,245.093018 15.047222,244.374756 
z"/>
<path fill="#00D9F6" opacity="1.000000" stroke="none" 
	d="
M255.893295,191.533676 
	C254.605667,192.784531 253.202225,193.390228 252.172256,194.383270 
	C240.484680,205.651794 228.873688,216.999680 217.201691,228.284439 
	C209.344666,235.880768 201.401199,243.387756 193.551910,250.992004 
	C192.266663,252.237122 191.268860,253.778915 190.070465,255.508759 
	C183.314102,255.871887 176.625488,255.909805 169.538513,255.564545 
	C169.804031,254.244614 170.344650,253.182755 171.149872,252.389511 
	C190.673203,233.156555 210.198563,213.925461 229.786011,194.757889 
	C236.306946,188.376740 242.932770,182.098083 249.660034,175.935669 
	C251.431519,174.312943 253.760117,173.298401 255.832886,172.004562 
	C255.872238,178.359177 255.911591,184.713806 255.893295,191.533676 
z"/>
<path fill="#00D0F7" opacity="1.000000" stroke="none" 
	d="
M255.890396,171.543854 
	C253.760117,173.298401 251.431519,174.312943 249.660034,175.935669 
	C242.932770,182.098083 236.306946,188.376740 229.786011,194.757889 
	C210.198563,213.925461 190.673203,233.156555 171.149872,252.389511 
	C170.344650,253.182755 169.804031,254.244614 169.073685,255.506622 
	C167.613007,255.903473 166.218796,255.975082 164.409653,256.106323 
	C161.623093,256.094849 159.251495,256.023712 156.456619,255.543610 
	C156.982986,253.629227 157.693619,251.880875 158.928833,250.665817 
	C162.123749,247.523026 165.643234,244.711929 168.867401,241.596863 
	C181.198868,229.682602 193.479248,217.715332 205.751999,205.740494 
	C220.767990,191.089020 235.729507,176.381531 250.805832,161.792557 
	C252.135666,160.505692 254.139908,159.915787 255.830933,159.002167 
	C255.869919,163.029160 255.908905,167.056168 255.890396,171.543854 
z"/>
<path fill="#00C7F8" opacity="1.000000" stroke="none" 
	d="
M255.837372,142.000656 
	C255.908585,143.068146 255.979782,144.135635 256.108002,145.600769 
	C256.092255,147.068298 256.019501,148.138168 255.563828,149.673676 
	C254.243637,150.804153 253.200958,151.360107 252.384872,152.150146 
	C240.446198,163.707718 228.516617,175.274841 216.627365,186.883194 
	C200.691605,202.442413 184.796967,218.043747 168.866776,233.608658 
	C167.922653,234.531128 166.718857,235.193985 165.806564,236.141907 
	C159.512665,242.681656 153.264145,249.265076 147.001038,255.834457 
	C144.628128,255.873642 142.255203,255.912842 139.458160,255.543365 
	C139.982742,253.629959 140.691406,251.880814 141.926514,250.667603 
	C145.240921,247.412033 148.870590,244.479034 152.214554,241.251648 
	C164.186218,229.697357 176.129837,218.113388 188.013077,206.468216 
	C207.866440,187.012619 227.665436,167.501541 247.485916,148.012375 
	C248.435989,147.078156 249.260757,145.967560 250.340652,145.225403 
	C252.086868,144.025345 253.996658,143.063232 255.837372,142.000656 
z"/>
<path fill="#00CBF8" opacity="1.000000" stroke="none" 
	d="
M147.447845,255.893280 
	C153.264145,249.265076 159.512665,242.681656 165.806564,236.141907 
	C166.718857,235.193985 167.922653,234.531128 168.866776,233.608658 
	C184.796967,218.043747 200.691605,202.442413 216.627365,186.883194 
	C228.516617,175.274841 240.446198,163.707718 252.384872,152.150146 
	C253.200958,151.360107 254.243637,150.804153 255.506134,150.072083 
	C255.869583,152.705750 255.907822,155.406647 255.888489,158.554840 
	C254.139908,159.915787 252.135666,160.505692 250.805832,161.792557 
	C235.729507,176.381531 220.767990,191.089020 205.751999,205.740494 
	C193.479248,217.715332 181.198868,229.682602 168.867401,241.596863 
	C165.643234,244.711929 162.123749,247.523026 158.928833,250.665817 
	C157.693619,251.880875 156.982986,253.629227 156.015610,255.484741 
	C153.296799,255.873962 150.595734,255.913025 147.447845,255.893280 
z"/>
<path fill="#30A3FC" opacity="1.000000" stroke="none" 
	d="
M62.475845,255.899948 
	C63.027161,254.379150 63.840866,252.704483 65.089935,251.470490 
	C85.762733,231.046783 106.463303,210.650955 127.220276,190.312805 
	C134.328781,183.347733 141.657471,176.607391 148.768585,169.644882 
	C150.118042,168.323608 150.916489,166.439545 151.986221,164.460297 
	C158.028458,164.044022 164.053665,163.982574 170.524612,164.357819 
	C169.921982,166.421112 169.131012,168.309998 167.783875,169.632248 
	C158.309464,178.931717 148.671295,188.064087 139.178680,197.345230 
	C120.894073,215.222534 102.655991,233.147552 84.452980,251.107880 
	C83.083900,252.458694 82.147308,254.247849 81.009674,255.833252 
	C74.986725,255.872543 68.963760,255.911835 62.475845,255.899948 
z"/>
<path fill="#29ABFC" opacity="1.000000" stroke="none" 
	d="
M81.471275,255.885193 
	C82.147308,254.247849 83.083900,252.458694 84.452980,251.107880 
	C102.655991,233.147552 120.894073,215.222534 139.178680,197.345230 
	C148.671295,188.064087 158.309464,178.931717 167.783875,169.632248 
	C169.131012,168.309998 169.921982,166.421112 170.987228,164.438049 
	C175.697571,164.017883 180.391022,163.954147 185.480453,164.308411 
	C184.759109,166.142838 183.782867,167.703949 182.502167,168.952805 
	C172.402969,178.800873 162.202560,188.545258 152.115677,198.405807 
	C134.187103,215.932083 116.301010,233.501953 98.452019,251.109207 
	C97.082916,252.459793 96.146629,254.249115 95.009171,255.834503 
	C90.650406,255.868713 86.291641,255.902924 81.471275,255.885193 
z"/>
<path fill="#20B3FA" opacity="1.000000" stroke="none" 
	d="
M95.469666,255.886536 
	C96.146629,254.249115 97.082916,252.459793 98.452019,251.109207 
	C116.301010,233.501953 134.187103,215.932083 152.115677,198.405807 
	C162.202560,188.545258 172.402969,178.800873 182.502167,168.952805 
	C183.782867,167.703949 184.759109,166.142838 185.940399,164.392426 
	C191.031097,162.903061 196.057816,161.747696 201.457657,160.865387 
	C198.583862,164.563141 195.434601,168.087067 192.073547,171.395844 
	C175.255554,187.952225 158.404968,204.475662 141.519424,220.963150 
	C131.416763,230.827667 121.181244,240.556671 111.132980,250.475784 
	C109.702812,251.887573 108.995277,254.031418 107.953278,255.836426 
	C107.953278,255.836426 108.012154,256.002411 108.028931,256.088928 
	C104.007195,256.096497 99.968681,256.017548 95.469666,255.886536 
z"/>
<path fill="#4F5BFF" opacity="1.000000" stroke="none" 
	d="
M195.529480,2.110656 
	C193.285950,5.586182 190.711456,9.127386 187.826141,12.394036 
	C186.084946,14.365342 183.760269,15.807573 181.869156,17.662277 
	C161.905029,37.242146 141.969803,56.851509 122.039841,76.466202 
	C116.380508,82.036018 110.764297,87.649643 105.063187,93.574661 
	C100.637436,93.968086 96.276802,94.030037 91.521454,93.676285 
	C92.246025,91.845497 93.222908,90.283195 94.508232,89.039734 
	C101.660843,82.120010 108.967224,75.358200 116.075188,68.393555 
	C136.830566,48.056679 157.531494,27.664078 178.199951,7.238881 
	C179.685776,5.770558 180.737167,3.862649 181.990540,2.159125 
	C186.349548,2.126303 190.708557,2.093483 195.529480,2.110656 
z"/>
<path fill="#524DFF" opacity="1.000000" stroke="none" 
	d="
M77.998772,93.951027 
	C73.279152,94.320358 68.559540,94.689682 63.434483,94.678040 
	C64.060059,92.657509 64.824638,90.746483 66.169434,89.426643 
	C71.267662,84.423073 76.638748,79.698105 81.754044,74.711243 
	C98.435654,58.448444 115.022758,42.088722 131.703033,25.824560 
	C138.129440,19.558462 144.753860,13.495520 151.184280,7.233431 
	C152.689056,5.768045 153.772141,3.869601 155.049240,2.170397 
	C155.049240,2.170399 155.000290,1.997015 154.977142,1.909826 
	C159.324707,1.898807 163.695435,1.974977 168.462738,2.427714 
	C164.391556,7.217610 159.954956,11.663062 155.449646,16.037733 
	C145.420090,25.776457 135.328690,35.451557 125.312737,45.204185 
	C110.640961,59.490234 95.975372,73.783279 81.422363,88.189728 
	C79.885818,89.710793 79.121407,92.011841 77.998772,93.951027 
z"/>
<path fill="#5054FF" opacity="1.000000" stroke="none" 
	d="
M78.455185,94.038101 
	C79.121407,92.011841 79.885818,89.710793 81.422363,88.189728 
	C95.975372,73.783279 110.640961,59.490234 125.312737,45.204185 
	C135.328690,35.451557 145.420090,25.776457 155.449646,16.037733 
	C159.954956,11.663062 164.391556,7.217610 168.924423,2.479011 
	C173.016525,2.120702 177.043533,2.087662 181.530548,2.106875 
	C180.737167,3.862649 179.685776,5.770558 178.199951,7.238881 
	C157.531494,27.664078 136.830566,48.056679 116.075188,68.393555 
	C108.967224,75.358200 101.660843,82.120010 94.508232,89.039734 
	C93.222908,90.283195 92.246025,91.845497 91.063034,93.593613 
	C86.970093,93.992805 82.940842,94.058990 78.455185,94.038101 
z"/>
<path fill="#542FFF" opacity="1.000000" stroke="none" 
	d="
M99.576981,1.892438 
	C104.363594,1.907478 108.713165,1.980761 113.459709,2.431149 
	C112.722878,4.220444 111.721275,5.768173 110.434387,7.023420 
	C99.950493,17.249458 89.364784,27.371332 78.902679,37.619457 
	C59.037312,57.078506 39.305141,76.674164 19.356918,96.047585 
	C13.917602,101.330162 7.905160,106.022614 2.155745,110.985893 
	C2.083440,107.962288 2.011134,104.938690 1.887966,101.464508 
	C1.911152,97.971344 1.985200,94.928757 2.440327,91.369835 
	C3.878073,90.071671 5.043395,89.401138 5.975238,88.491455 
	C21.928074,72.917831 37.853973,57.316616 53.780430,41.715992 
	C56.397095,39.152859 58.968632,36.543510 61.594818,33.990273 
	C71.610641,24.252670 81.653160,14.542430 91.635681,4.770868 
	C92.297676,4.122866 92.542465,3.048650 92.981308,2.172678 
	C95.034187,2.098679 97.087067,2.024680 99.576981,1.892438 
z"/>
<path fill="#5524FF" opacity="1.000000" stroke="none" 
	d="
M92.516998,2.120791 
	C92.542465,3.048650 92.297676,4.122866 91.635681,4.770868 
	C81.653160,14.542430 71.610641,24.252670 61.594818,33.990273 
	C58.968632,36.543510 56.397095,39.152859 53.780430,41.715992 
	C37.853973,57.316616 21.928074,72.917831 5.975238,88.491455 
	C5.043395,89.401138 3.878073,90.071671 2.496929,90.917236 
	C2.130764,84.961121 2.089076,78.941277 2.455656,72.441307 
	C4.246534,71.136406 5.812166,70.513138 6.980312,69.452209 
	C12.249002,64.667084 17.488335,59.843445 22.586365,54.877754 
	C38.736240,39.147121 54.848553,23.377432 70.873787,7.520169 
	C72.291153,6.117660 72.968880,3.967674 73.990135,2.164859 
	C80.010986,2.132874 86.031830,2.100889 92.516998,2.120791 
z"/>
<path fill="#551AFF" opacity="1.000000" stroke="none" 
	d="
M73.526550,2.111260 
	C72.968880,3.967674 72.291153,6.117660 70.873787,7.520169 
	C54.848553,23.377432 38.736240,39.147121 22.586365,54.877754 
	C17.488335,59.843445 12.249002,64.667084 6.980312,69.452209 
	C5.812166,70.513138 4.246534,71.136406 2.514235,71.975723 
	C2.122912,67.298195 2.081277,62.606136 2.100587,57.450310 
	C3.392029,56.206139 4.804780,55.612694 5.825797,54.617393 
	C22.188740,38.666580 38.510796,22.673746 54.806789,6.654501 
	C55.964279,5.516672 56.846684,4.099010 57.921700,2.485599 
	C63.011929,2.125710 68.037445,2.091686 73.526550,2.111260 
z"/>
<path fill="#4F5AFF" opacity="1.000000" stroke="none" 
	d="
M44.456940,151.439331 
	C43.200657,152.884491 41.672195,153.907379 40.369465,155.164246 
	C29.229973,165.911530 18.153618,176.724380 6.986730,187.442947 
	C5.850187,188.533875 4.243047,189.134521 2.504983,189.977417 
	C2.119631,185.303009 2.083590,180.613846 2.449253,175.444794 
	C4.465561,173.911667 6.305608,173.088943 7.657204,171.766861 
	C14.988528,164.595657 22.196455,157.298370 29.452721,150.050354 
	C32.463459,147.043045 35.488689,144.050247 38.507332,141.050842 
	C40.434692,144.409073 42.362053,147.767288 44.456940,151.439331 
z"/>
<path fill="#5254FF" opacity="1.000000" stroke="none" 
	d="
M38.427681,140.705627 
	C35.488689,144.050247 32.463459,147.043045 29.452721,150.050354 
	C22.196455,157.298370 14.988528,164.595657 7.657204,171.766861 
	C6.305608,173.088943 4.465561,173.911667 2.501191,174.981140 
	C2.113062,170.636581 2.074699,166.275772 2.426981,161.391556 
	C4.716771,159.573715 6.847694,158.518524 8.474262,156.942749 
	C14.936268,150.682526 21.103975,144.113495 27.671909,137.970184 
	C30.250700,135.558105 33.594666,133.964111 36.590164,131.997543 
	C37.176121,134.785156 37.762074,137.572784 38.427681,140.705627 
z"/>
<path fill="#524CFF" opacity="1.000000" stroke="none" 
	d="
M36.645798,131.543060 
	C33.594666,133.964111 30.250700,135.558105 27.671909,137.970184 
	C21.103975,144.113495 14.936268,150.682526 8.474262,156.942749 
	C6.847694,158.518524 4.716771,159.573715 2.481607,160.929138 
	C2.083014,160.550110 2.020438,160.110077 1.902268,159.341171 
	C1.918170,155.972504 1.989667,152.932709 2.437331,149.375244 
	C3.751355,148.195007 4.791524,147.639191 5.611409,146.853516 
	C14.841712,138.008270 23.993279,129.080139 33.290009,120.305664 
	C34.757401,118.920708 36.839855,118.187431 38.637932,117.152847 
	C37.992432,121.798088 37.346931,126.443321 36.645798,131.543060 
z"/>
<path fill="#543AFF" opacity="1.000000" stroke="none" 
	d="
M2.096789,111.451813 
	C7.905160,106.022614 13.917602,101.330162 19.356918,96.047585 
	C39.305141,76.674164 59.037312,57.078506 78.902679,37.619457 
	C89.364784,27.371332 99.950493,17.249458 110.434387,7.023420 
	C111.721275,5.768173 112.722878,4.220444 113.920784,2.482702 
	C119.675652,2.124747 125.366409,2.092345 131.457092,2.436199 
	C130.604736,4.341564 129.487885,6.009937 128.079941,7.378943 
	C106.130096,28.721685 84.100204,49.982201 62.176918,71.352119 
	C43.819981,89.245712 25.592062,107.271629 7.257111,125.187881 
	C5.755355,126.655350 3.869590,127.729828 2.162252,128.986908 
	C2.120780,123.297180 2.079308,117.607460 2.096789,111.451813 
z"/>
<path fill="#5341FF" opacity="1.000000" stroke="none" 
	d="
M2.105972,129.443176 
	C3.869590,127.729828 5.755355,126.655350 7.257111,125.187881 
	C25.592062,107.271629 43.819981,89.245712 62.176918,71.352119 
	C84.100204,49.982201 106.130096,28.721685 128.079941,7.378943 
	C129.487885,6.009937 130.604736,4.341564 131.921600,2.487648 
	C135.681229,2.129694 139.376266,2.096546 143.464233,2.438047 
	C142.606018,4.340573 141.490250,6.007668 140.083496,7.375493 
	C118.152260,28.699789 96.128677,49.929340 74.239182,71.296295 
	C53.885815,91.163811 33.715237,111.218712 13.339244,131.062820 
	C9.940277,134.373062 5.904031,137.028946 2.162265,139.987198 
	C2.124741,136.624619 2.087216,133.262039 2.105972,129.443176 
z"/>
<path fill="#5247FF" opacity="1.000000" stroke="none" 
	d="
M2.108270,140.435547 
	C5.904031,137.028946 9.940277,134.373062 13.339244,131.062820 
	C33.715237,111.218712 53.885815,91.163811 74.239182,71.296295 
	C96.128677,49.929340 118.152260,28.699789 140.083496,7.375493 
	C141.490250,6.007668 142.606018,4.340573 143.921692,2.488077 
	C147.367523,2.131377 150.748825,2.099296 154.589676,2.118805 
	C153.772141,3.869601 152.689056,5.768045 151.184280,7.233431 
	C144.753860,13.495520 138.129440,19.558462 131.703033,25.824560 
	C115.022758,42.088722 98.435654,58.448444 81.754044,74.711243 
	C76.638748,79.698105 71.267662,84.423073 66.169434,89.426643 
	C64.824638,90.746483 64.060059,92.657509 63.014835,94.660583 
	C51.916687,98.788872 43.423363,105.440384 38.802963,116.872131 
	C36.839855,118.187431 34.757401,118.920708 33.290009,120.305664 
	C23.993279,129.080139 14.841712,138.008270 5.611409,146.853516 
	C4.791524,147.639191 3.751355,148.195007 2.489175,148.922638 
	C2.127993,146.286453 2.091134,143.585175 2.108270,140.435547 
z"/>
<path fill="#14B9FA" opacity="1.000000" stroke="none" 
	d="
M108.418884,255.888824 
	C108.995277,254.031418 109.702812,251.887573 111.132980,250.475784 
	C121.181244,240.556671 131.416763,230.827667 141.519424,220.963150 
	C158.404968,204.475662 175.255554,187.952225 192.073547,171.395844 
	C195.434601,168.087067 198.583862,164.563141 201.833374,160.753082 
	C208.670319,156.623886 214.110870,151.476624 218.151108,144.095978 
	C218.728638,143.402908 218.850250,143.119476 218.893494,142.802399 
	C218.893494,142.802399 218.885757,142.887070 219.220337,142.897430 
	C220.974121,142.166306 222.653183,141.699188 223.771484,140.639999 
	C232.931702,131.963913 241.962708,123.151512 251.101212,114.452232 
	C252.500290,113.120407 254.249283,112.156151 255.836426,111.021889 
	C255.878052,115.710091 255.919693,120.398300 255.550690,125.563217 
	C253.870560,126.751320 252.415115,127.257210 251.363113,128.209000 
	C246.309921,132.780823 241.287079,137.392044 236.396103,142.136322 
	C212.145676,165.659485 187.945450,189.234406 163.716568,212.779816 
	C152.976044,223.217361 142.099792,233.518539 131.516525,244.112762 
	C127.980598,247.652359 125.163528,251.910080 122.017853,255.839539 
	C117.640068,255.873444 113.262283,255.907333 108.418884,255.888824 
z"/>
<path fill="#00C3F9" opacity="1.000000" stroke="none" 
	d="
M255.896301,141.549683 
	C253.996658,143.063232 252.086868,144.025345 250.340652,145.225403 
	C249.260757,145.967560 248.435989,147.078156 247.485916,148.012375 
	C227.665436,167.501541 207.866440,187.012619 188.013077,206.468216 
	C176.129837,218.113388 164.186218,229.697357 152.214554,241.251648 
	C148.870590,244.479034 145.240921,247.412033 141.926514,250.667603 
	C140.691406,251.880814 139.982742,253.629959 139.016846,255.484924 
	C135.639481,255.873703 132.279312,255.912308 128.530121,255.568939 
	C135.437057,247.947861 142.692139,240.667023 150.038086,233.479019 
	C162.409790,221.373291 174.872589,209.360626 187.236465,197.246994 
	C206.621521,178.254288 225.908157,159.160782 245.360443,140.237411 
	C248.526443,137.157486 252.331039,134.734009 255.840485,132.007126 
	C255.878723,135.037659 255.916977,138.068192 255.896301,141.549683 
z"/>
<path fill="#05BFFA" opacity="1.000000" stroke="none" 
	d="
M255.899231,131.581909 
	C252.331039,134.734009 248.526443,137.157486 245.360443,140.237411 
	C225.908157,159.160782 206.621521,178.254288 187.236465,197.246994 
	C174.872589,209.360626 162.409790,221.373291 150.038086,233.479019 
	C142.692139,240.667023 135.437057,247.947861 128.075623,255.512970 
	C126.296410,255.874100 124.582672,255.909256 122.443390,255.891968 
	C125.163528,251.910080 127.980598,247.652359 131.516525,244.112762 
	C142.099792,233.518539 152.976044,223.217361 163.716568,212.779816 
	C187.945450,189.234406 212.145676,165.659485 236.396103,142.136322 
	C241.287079,137.392044 246.309921,132.780823 251.363113,128.209000 
	C252.415115,127.257210 253.870560,126.751320 255.490417,126.026642 
	C255.879837,127.727798 255.918900,129.442245 255.899231,131.581909 
z"/>
<path fill="#2BABFC" opacity="1.000000" stroke="none" 
	d="
M221.705017,128.001312 
	C220.903305,124.253120 220.101593,120.504929 219.603180,116.362389 
	C221.278671,115.137177 222.855698,114.521568 223.990753,113.441483 
	C233.309494,104.574127 242.525482,95.598816 251.833786,86.720375 
	C252.984406,85.622887 254.493942,84.901688 255.837158,84.006134 
	C255.908920,86.048538 255.980667,88.090927 256.106384,90.568634 
	C256.091248,93.052345 256.022064,95.100746 255.571777,97.647430 
	C245.773331,106.950867 236.387527,115.790253 226.906464,124.526245 
	C225.391525,125.922142 223.449585,126.854607 221.705017,128.001312 
z"/>
<path fill="#21B2FA" opacity="1.000000" stroke="none" 
	d="
M221.579437,128.437225 
	C223.449585,126.854607 225.391525,125.922142 226.906464,124.526245 
	C236.387527,115.790253 245.773331,106.950867 255.516510,98.083473 
	C255.879776,102.046890 255.917221,106.072548 255.895538,110.560043 
	C254.249283,112.156151 252.500290,113.120407 251.101212,114.452232 
	C241.962708,123.151512 232.931702,131.963913 223.771484,140.639999 
	C222.653183,141.699188 220.974121,142.166306 219.179108,142.887070 
	C219.686813,138.201935 220.570328,133.537552 221.579437,128.437225 
z"/>
<path fill="#31A2FC" opacity="1.000000" stroke="none" 
	d="
M255.890350,83.540161 
	C254.493942,84.901688 252.984406,85.622887 251.833786,86.720375 
	C242.525482,95.598816 233.309494,104.574127 223.990753,113.441483 
	C222.855698,114.521568 221.278671,115.137177 219.558563,115.986908 
	C217.098541,112.609444 214.986420,109.213120 212.711365,105.509109 
	C224.074265,94.258987 235.564026,83.278099 247.154785,72.404861 
	C249.631912,70.081100 252.475601,68.148109 255.500061,66.019012 
	C255.880981,71.693344 255.912262,77.383774 255.890350,83.540161 
z"/>
<path fill="#4E62FF" opacity="1.000000" stroke="none" 
	d="
M60.994995,150.742630 
	C57.303646,147.081650 53.612297,143.420654 50.215786,139.345306 
	C51.472878,138.318619 52.569511,137.846497 53.376904,137.072601 
	C63.042046,127.808495 72.688080,118.523987 82.266045,109.169983 
	C83.398766,108.063759 84.097160,106.512810 84.996887,105.168007 
	C91.686699,105.117599 98.376518,105.067192 105.464050,105.411163 
	C103.479004,108.261337 100.973946,110.611786 98.744843,113.199921 
	C96.040482,116.339882 93.569099,119.680511 90.538757,123.013565 
	C87.085693,123.111252 84.089996,123.180458 81.096069,123.134758 
	C77.672668,123.082504 74.091568,123.843185 73.799973,127.533516 
	C73.612633,129.904434 75.928497,132.473129 76.822800,135.114609 
	C71.347168,140.431580 66.171082,145.587097 60.994995,150.742630 
z"/>
<path fill="#4975FF" opacity="1.000000" stroke="none" 
	d="
M123.850174,125.309631 
	C116.946182,121.923431 113.856003,124.450897 113.955322,133.570770 
	C107.378899,140.368286 101.189095,146.681473 94.999283,152.994675 
	C89.972343,153.070694 84.945404,153.146713 79.473770,152.763367 
	C80.363686,150.529846 81.633308,148.701981 83.045982,146.992355 
	C86.326447,143.022278 89.675972,139.109268 93.378738,135.106171 
	C98.260834,134.845581 100.206245,132.296921 100.596832,127.978279 
	C102.422539,127.012917 104.079597,126.257492 105.348946,125.083031 
	C109.566429,121.180847 113.698494,117.181557 117.745140,113.102272 
	C119.061363,111.775436 120.014740,110.088669 121.134087,108.566536 
	C124.381592,112.149605 127.629105,115.732674 130.549744,119.672882 
	C128.098633,121.789886 125.974403,123.549759 123.850174,125.309631 
z"/>
<path fill="#5259FF" opacity="1.000000" stroke="none" 
	d="
M84.532906,105.104050 
	C84.097160,106.512810 83.398766,108.063759 82.266045,109.169983 
	C72.688080,118.523987 63.042046,127.808495 53.376904,137.072601 
	C52.569511,137.846497 51.472878,138.318619 50.158943,138.995682 
	C42.482544,123.644585 53.368637,105.799324 70.612450,105.070427 
	C75.090363,104.881142 79.583031,105.040749 84.532906,105.104050 
z"/>
<path fill="#4289FF" opacity="1.000000" stroke="none" 
	d="
M163.000885,105.008362 
	C167.362671,104.939316 171.724472,104.870262 176.529175,105.252747 
	C175.728638,107.555527 174.632874,109.529976 173.212097,111.233330 
	C169.891037,115.214912 166.413956,119.066368 162.678680,123.090981 
	C160.820023,124.806374 159.282761,126.401314 157.399414,128.015182 
	C155.456146,129.102234 153.673294,129.973312 152.293991,131.272751 
	C146.431305,136.796005 140.688217,142.446228 134.901459,148.050079 
	C132.307419,144.931702 129.713394,141.813354 127.424980,138.284668 
	C129.925552,136.200455 132.120499,134.526581 134.315460,132.852722 
	C136.764557,132.949799 140.740524,133.977158 141.360413,132.959732 
	C142.879074,130.467148 142.848892,127.030914 143.835876,123.514397 
	C150.486816,117.039047 156.743851,111.023705 163.000885,105.008362 
z"/>
<path fill="#4C6DFF" opacity="1.000000" stroke="none" 
	d="
M120.882629,108.325790 
	C120.014740,110.088669 119.061363,111.775436 117.745140,113.102272 
	C113.698494,117.181557 109.566429,121.180847 105.348946,125.083031 
	C104.079597,126.257492 102.422539,127.012917 100.455948,127.643799 
	C98.335304,123.091270 94.560593,123.228294 90.996918,122.934319 
	C93.569099,119.680511 96.040482,116.339882 98.744843,113.199921 
	C100.973946,110.611786 103.479004,108.261337 105.928032,105.477692 
	C110.873253,106.128242 115.752213,107.106651 120.882629,108.325790 
z"/>
<path fill="#4C6DFF" opacity="1.000000" stroke="none" 
	d="
M92.997513,135.173141 
	C89.675972,139.109268 86.326447,143.022278 83.045982,146.992355 
	C81.633308,148.701981 80.363686,150.529846 79.014465,152.670746 
	C73.224693,152.413315 67.449532,151.789124 61.334682,150.953781 
	C66.171082,145.587097 71.347168,140.431580 77.281059,135.112915 
	C83.025078,135.024231 88.011299,135.098679 92.997513,135.173141 
z"/>
<path fill="#487DFF" opacity="1.000000" stroke="none" 
	d="
M95.458740,153.082306 
	C101.189095,146.681473 107.378899,140.368286 113.928635,133.992203 
	C115.799072,138.054382 117.309578,142.179443 118.890518,146.652802 
	C116.683189,149.099762 114.405441,151.198425 112.068794,153.632996 
	C106.646004,153.702576 101.282104,153.436264 95.458740,153.082306 
z"/>
<path fill="#4681FF" opacity="1.000000" stroke="none" 
	d="
M162.540619,104.924210 
	C156.743851,111.023705 150.486816,117.039047 143.824097,123.083786 
	C142.517349,120.263054 141.616287,117.412918 140.616989,114.252365 
	C142.682663,111.052414 144.846588,108.162888 147.088577,104.898056 
	C152.137878,104.628517 157.109131,104.734283 162.540619,104.924210 
z"/>
<path fill="#4A81FF" opacity="1.000000" stroke="none" 
	d="
M134.174286,132.478973 
	C132.120499,134.526581 129.925552,136.200455 127.397133,137.937927 
	C126.062294,134.017868 125.060913,130.034225 123.954849,125.680099 
	C125.974403,123.549759 128.098633,121.789886 130.580353,120.013412 
	C131.969589,124.032967 133.001343,128.069107 134.174286,132.478973 
z"/>
<path fill="#359DFD" opacity="1.000000" stroke="none" 
	d="
M172.000275,152.830704 
	C168.305405,152.878036 164.610519,152.925385 160.526428,152.580383 
	C162.192444,149.857635 164.330765,147.594421 166.282654,145.180466 
	C168.930099,141.906265 171.434769,138.516586 174.427933,135.113312 
	C183.001297,134.939240 184.303085,133.936020 184.977570,127.061829 
	C190.835114,121.460373 196.521759,116.178207 202.208389,110.896042 
	C203.786026,112.667259 205.363647,114.438469 206.841400,116.832123 
	C196.301758,127.662247 185.836044,137.843689 175.453583,148.109329 
	C174.084671,149.462845 173.140930,151.246353 172.000275,152.830704 
z"/>
<path fill="#32A4FC" opacity="1.000000" stroke="none" 
	d="
M172.459686,152.894958 
	C173.140930,151.246353 174.084671,149.462845 175.453583,148.109329 
	C185.836044,137.843689 196.301758,127.662247 206.909363,117.154922 
	C208.178391,120.272987 209.279541,123.690697 209.947784,127.583771 
	C201.389481,135.818451 193.257599,143.571060 185.166946,151.366455 
	C184.897232,151.626312 185.045105,152.319580 184.998337,152.810822 
	C180.971924,152.860291 176.945496,152.909760 172.459686,152.894958 
z"/>
<path fill="#4090FE" opacity="1.000000" stroke="none" 
	d="
M135.108734,148.335144 
	C140.688217,142.446228 146.431305,136.796005 152.293991,131.272751 
	C153.673294,129.973312 155.456146,129.102234 157.438782,128.386139 
	C158.916122,130.722321 160.008057,132.706436 161.032745,135.048706 
	C157.335022,139.413269 153.614136,143.343079 150.120605,147.465561 
	C148.808823,149.013504 148.025085,151.008926 147.000626,152.800354 
	C143.105759,151.406967 139.210892,150.013580 135.108734,148.335144 
z"/>
<path fill="#3E90FE" opacity="1.000000" stroke="none" 
	d="
M163.000061,122.970520 
	C166.413956,119.066368 169.891037,115.214912 173.212097,111.233330 
	C174.632874,109.529976 175.728638,107.555527 176.987122,105.340790 
	C181.801361,105.036407 186.600571,105.095497 191.710144,105.693771 
	C189.834869,108.834137 187.648529,111.434700 185.463806,114.036652 
	C182.974823,117.000977 180.487305,119.966537 177.538452,123.008560 
	C172.385208,123.047226 167.692627,123.008873 163.000061,122.970520 
z"/>
<path fill="#2FAAFC" opacity="1.000000" stroke="none" 
	d="
M185.418732,152.873703 
	C185.045105,152.319580 184.897232,151.626312 185.166946,151.366455 
	C193.257599,143.571060 201.389481,135.818451 209.881271,127.998001 
	C211.158264,141.714828 200.724121,152.401703 185.418732,152.873703 
z"/>
<path fill="#3997FE" opacity="1.000000" stroke="none" 
	d="
M147.457947,152.880402 
	C148.025085,151.008926 148.808823,149.013504 150.120605,147.465561 
	C153.614136,143.343079 157.335022,139.413269 161.484909,135.120300 
	C166.003098,134.947983 170.001877,135.062225 174.000671,135.176453 
	C171.434769,138.516586 168.930099,141.906265 166.282654,145.180466 
	C164.330765,147.594421 162.192444,149.857635 160.069870,152.514923 
	C155.973450,152.881378 151.944366,152.920914 147.457947,152.880402 
z"/>
<path fill="#3C98FE" opacity="1.000000" stroke="none" 
	d="
M177.999146,122.931557 
	C180.487305,119.966537 182.974823,117.000977 185.463806,114.036652 
	C187.648529,111.434700 189.834869,108.834137 192.098541,105.856636 
	C195.403534,107.085434 198.630508,108.690544 202.032928,110.595856 
	C196.521759,116.178207 190.835114,121.460373 184.731216,126.812584 
	C182.209015,125.565605 180.104080,124.248581 177.999146,122.931557 
z"/>
<path fill="#21B2FA" opacity="1.000000" stroke="none" 
	d="
M218.673828,142.921921 
	C218.850250,143.119476 218.728638,143.402908 218.361694,143.815277 
	C218.132004,143.624405 218.218475,143.312271 218.673828,142.921921 
z"/>
<path fill="#FAFBFF" opacity="1.000000" stroke="none" 
	d="
M93.378738,135.106171 
	C88.011299,135.098679 83.025078,135.024231 77.580597,134.951477 
	C75.928497,132.473129 73.612633,129.904434 73.799973,127.533516 
	C74.091568,123.843185 77.672668,123.082504 81.096069,123.134758 
	C84.089996,123.180458 87.085693,123.111252 90.538757,123.013565 
	C94.560593,123.228294 98.335304,123.091270 100.109680,127.661781 
	C100.206245,132.296921 98.260834,134.845581 93.378738,135.106171 
z"/>
<path fill="#F9FBFF" opacity="1.000000" stroke="none" 
	d="
M177.538452,123.008560 
	C180.104080,124.248581 182.209015,125.565605 184.560303,127.131866 
	C184.303085,133.936020 183.001297,134.939240 174.427933,135.113312 
	C170.001877,135.062225 166.003098,134.947983 161.552155,134.762146 
	C160.008057,132.706436 158.916122,130.722321 157.784836,128.367218 
	C159.282761,126.401314 160.820023,124.806374 162.678680,123.090973 
	C167.692627,123.008873 172.385208,123.047226 177.538452,123.008560 
z"/>
</svg>