<?xml version="1.0" encoding="UTF-8"?>
<svg version="1.1" xmlns="http://www.w3.org/2000/svg" width="216" height="216" viewBox="0 0 216 216">
  <path d="M 80 50 C 78 55 76 66 76 77 C 76 96 82 110 82 110 L 85 110 C 85 110 82 92 84 77 C 86 62 93 56 93 56 C 93 56 87 51 80 50 Z" fill="#2C3E50"/>
  <path d="M 136 50 C 138 55 140 66 140 77 C 140 96 134 110 134 110 L 131 110 C 131 110 134 92 132 77 C 130 62 123 56 123 56 C 123 56 129 51 136 50 Z" fill="#2C3E50"/>
  <path d="M 93 56 C 100 52 108 52 115 55 C 123 58 127 65 129 74 C 130 84 126 100 126 110 H 90 C 90 100 86 84 87 74 C 89 65 90 58 93 56 Z" fill="#85C1E9"/>

  <path d="M 82 53 C 81 57 80 64 80 70 C 83 67 87 62 89 57 C 87 55 84 54 82 53 Z" fill="#FADBD8"/>
  <path d="M 134 53 C 135 57 136 64 136 70 C 133 67 129 62 127 57 C 129 55 132 54 134 53 Z" fill="#FADBD8"/>

  <path d="M 91 80 C 91 75 125 75 125 80 C 125 98 122 110 108 110 C 94 110 91 98 91 80 Z" fill="#FDFEFE"/>
  <ellipse cx="98" cy="94" rx="2" ry="7" fill="#2C3E50"/>
  <ellipse cx="118" cy="94" rx="2" ry="7" fill="#2C3E50"/>
  
  <ellipse cx="93" cy="100" rx="3" ry="2" fill="#F1948A"/>
  <ellipse cx="123" cy="100" rx="3" ry="2" fill="#F1948A"/>

  <path d="M 68 110 L 148 110 L 165 132 L 158 194 L 58 194 L 51 132 Z" fill="#D5F5E3"/>
  
  <path d="M 68 110 L 51 132 H 165 L 148 110 Z" fill="#58D68D"/>
  <path d="M 51 132 L 58 194 L 158 194 L 165 132" stroke="#2C3E50" stroke-width="3" fill="none" stroke-linejoin="round"/>
  <path d="M 68 110 H 148 L 165 132 H 51 Z" stroke="#2C3E50" stroke-width="3" fill="none" stroke-linejoin="round"/>
  <path d="M 51 132 L 60 112 M 165 132 L 156 112" stroke="#2C3E50" stroke-width="3" fill="none"/>

  <path d="M 125 155 C 127 151 133 151 135 155 C 137 159 135 168 130 168 C 125 168 123 159 125 155 Z" stroke="#2C3E50" stroke-width="2" fill="none"/>
  <path d="M 120 160 L 115 164 M 140 160 L 145 164" stroke="#2C3E50" stroke-width="2" fill="none"/>
</svg>
