<?xml version="1.0" encoding="UTF-8"?>
<svg version="1.1" xmlns="http://www.w3.org/2000/svg" width="216" height="216" viewBox="0 0 216 216">
  <path d="M 60 45 L 90 75 M 48 57 L 78 87" stroke="#1A1A1A" stroke-width="6" stroke-linecap="round"/>
  <path d="M 156 45 L 126 75 M 168 57 L 138 87" stroke="#1A1A1A" stroke-width="6" stroke-linecap="round"/>
  <path d="M 48 159 L 78 129 M 60 171 L 90 141" stroke="#1A1A1A" stroke-width="6" stroke-linecap="round"/>
  <path d="M 168 159 L 138 129 M 156 171 L 126 141" stroke="#1A1A1A" stroke-width="6" stroke-linecap="round"/>

  <path d="M 108 55 L 158 85 L 108 115 L 58 85 Z" fill="none" stroke="#1A1A1A" stroke-width="7" stroke-linejoin="round"/>
  
  <path d="M 108 55 V 115 M 58 85 H 158 M 79 69 L 137 101 M 79 101 L 137 69" stroke="#1A1A1A" stroke-width="4"/>

  <path d="M 58 85 L 108 115 V 165 L 58 135 Z" fill="none" stroke="#1A1A1A" stroke-width="6" stroke-linejoin="round"/>
  
  <path d="M 158 85 L 108 115 V 165 L 158 135 Z" fill="none" stroke="#1A1A1A" stroke-width="6" stroke-linejoin="round"/>
</svg>
