<?xml version="1.0" encoding="UTF-8"?>
<svg version="1.1" xmlns="http://www.w3.org/2000/svg" width="216" height="216" viewBox="0 0 216 216">
  <path d="M 108 30 C 90 60 78 85 78 115 C 78 123 74 126 68 131 C 65 133 65 138 70 137 C 82 135 96 130 108 135 C 120 130 134 135 146 137 C 151 138 151 133 148 131 C 142 126 138 123 138 115 C 138 85 126 60 108 30 Z" fill="none" stroke="#1A1A1A" stroke-width="7" stroke-linecap="round" stroke-linejoin="round"/>
  
  <circle cx="108" cy="90" r="11" fill="none" stroke="#1A1A1A" stroke-width="6"/>

  <path d="M 108 152 C 101 152 98 162 98 170 C 98 185 108 195 108 195 C 108 195 118 185 118 170 C 118 162 115 152 108 152 Z" fill="none" stroke="#1A1A1A" stroke-width="6" stroke-linejoin="round"/>
</svg>
